<?xml version="1.0" encoding="utf-8"?>
<!-- Generator: Adobe Illustrator 19.2.1, SVG Export Plug-In . SVG Version: 6.00 Build 0)  -->
<svg version="1.1" id="Layer_1" xmlns="http://www.w3.org/2000/svg" xmlns:xlink="http://www.w3.org/1999/xlink" x="0px" y="0px"
	 viewBox="0 0 486.6 232" style="enable-background:new 0 0 486.6 232;" xml:space="preserve">
<style type="text/css">
	.st0{fill:#4D4D4F;}
	.st1{font-family:'Amplitude-Regular';}
	.st2{font-size:7.058px;}
	.st3{fill:none;stroke:#FFFFFF;stroke-width:1.008;stroke-miterlimit:10;}
	.st4{clip-path:url(#SVGID_2_);fill:none;stroke:#FFFFFF;stroke-width:1.008;stroke-miterlimit:10;}
	.st5{fill:#54301A;}
	.st6{fill:#D8DDC3;}
	.st7{fill:#FFE7CD;}
	.st8{fill:#D3DDED;}
	.st9{fill:#BAC192;}
	.st10{fill:#FED2A3;}
	.st11{fill:#AFC4E0;}
	.st12{fill:#9CA768;}
	.st13{fill:#FCBE7B;}
	.st14{fill:#8EAED4;}
	.st15{fill:#677719;}
	.st16{fill:#F89828;}
	.st17{fill:#4E8ABE;}
	.st18{fill:#836CA8;}
	.st19{fill:#4F2683;}
	.st20{font-size:9px;}
	.st21{font-size:5.247px;}
	.st22{font-family:'Amplitude-Light';}
	.st23{font-size:8px;}
	.st24{clip-path:url(#SVGID_4_);}
	.st25{clip-path:url(#SVGID_4_);fill:none;stroke:#FFFFFF;stroke-width:1.008;stroke-miterlimit:10;}
	.st26{font-family:'Amplitude-Medium';}
	.st27{font-size:7.2px;}
	.st28{fill:#636466;}
	.st29{font-size:6.4px;}
	.st30{font-size:4.8px;}
	.st31{font-size:5.6px;}
	.st32{clip-path:url(#SVGID_6_);}
</style>
<g>
	<text transform="matrix(1 0 0 1 2.372 228.083)" class="st0 st1 st2">-60%</text>
	<text transform="matrix(1 0 0 1 2.2665 205.8359)"><tspan x="0" y="0" class="st0 st1 st2">-</tspan><tspan x="2.1" y="0" class="st0 st1 st2">40%</tspan></text>
	<text transform="matrix(1 0 0 1 3.1273 183.5889)"><tspan x="0" y="0" class="st0 st1 st2">-</tspan><tspan x="1.9" y="0" class="st0 st1 st2">20%</tspan></text>
	<text transform="matrix(1 0 0 1 8.414 161.3428)" class="st0 st1 st2">0%</text>
	<text transform="matrix(1 0 0 1 5.0614 139.0957)" class="st0 st1 st2">20%</text>
	<text transform="matrix(1 0 0 1 4.4472 116.8486)" class="st0 st1 st2">40%</text>
	<text transform="matrix(1 0 0 1 4.5883 94.6016)" class="st0 st1 st2">60%</text>
	<text transform="matrix(1 0 0 1 4.6376 72.3555)" class="st0 st1 st2">80%</text>
	<text transform="matrix(1 0 0 1 1.6454 50.1084)" class="st0 st1 st2">100%</text>
	<text transform="matrix(1 0 0 1 2.3227 27.8613)" class="st0 st1 st2">120%</text>
	<line class="st3" x1="21" y1="226" x2="21" y2="25.7"/>
</g>
<g>
	<defs>
		<rect id="SVGID_1_" y="19.7" width="241.6" height="212.3"/>
	</defs>
	<clipPath id="SVGID_2_">
		<use xlink:href="#SVGID_1_"  style="overflow:visible;"/>
	</clipPath>
	<line class="st4" x1="21" y1="226" x2="618" y2="226"/>
	<line class="st4" x1="21" y1="203.7" x2="618" y2="203.7"/>
	<line class="st4" x1="21" y1="181.5" x2="618" y2="181.5"/>
	<line class="st4" x1="21" y1="159.2" x2="618" y2="159.2"/>
	<line class="st4" x1="21" y1="137" x2="618" y2="137"/>
	<line class="st4" x1="21" y1="114.7" x2="618" y2="114.7"/>
	<line class="st4" x1="21" y1="92.5" x2="618" y2="92.5"/>
	<line class="st4" x1="21" y1="70.2" x2="618" y2="70.2"/>
	<line class="st4" x1="21" y1="48" x2="618" y2="48"/>
	<line class="st4" x1="21" y1="25.7" x2="618" y2="25.7"/>
</g>
<g>
	<rect x="218.2" y="159.7" class="st5" width="10.1" height="60.9"/>
	<rect x="133.7" y="159.7" class="st6" width="10.1" height="45.3"/>
	<rect x="80.5" y="159.7" class="st7" width="10.1" height="34.1"/>
	<rect x="27.3" y="159.7" class="st8" width="11" height="21.2"/>
	<rect x="143.9" y="159.7" class="st9" width="10.1" height="49.7"/>
	<rect x="90.6" y="159.7" class="st10" width="11" height="37.9"/>
	<rect x="38.3" y="159.7" class="st11" width="10.1" height="24.5"/>
	<rect x="154" y="159.7" class="st12" width="11" height="54.5"/>
	<rect x="101.6" y="159.7" class="st13" width="10.1" height="41.7"/>
	<rect x="48.4" y="159.7" class="st14" width="11" height="27.2"/>
	<rect x="165" y="159.7" class="st15" width="10.1" height="59.4"/>
	<rect x="111.8" y="159.7" class="st16" width="11" height="45.4"/>
	<rect x="59.4" y="159.7" class="st17" width="10.1" height="29.8"/>
	<rect x="186.1" y="159.7" class="st18" width="11" height="55.3"/>
	<rect x="196.6" y="159.7" class="st19" width="10.6" height="60.9"/>
	<text transform="matrix(1 0 0 1 20.1 7.5332)"><tspan x="0" y="0" class="st5 st1 st20">T</tspan><tspan x="3.9" y="0" class="st5 st1 st20">o</tspan><tspan x="8.8" y="0" class="st5 st1 st20">t</tspan><tspan x="11.8" y="0" class="st5 st1 st20">a</tspan><tspan x="16.1" y="0" class="st5 st1 st20">l </tspan><tspan x="19.9" y="0" class="st5 st1 st20">l</tspan><tspan x="22" y="0" class="st5 st1 st20">o</tspan><tspan x="26.9" y="0" class="st5 st1 st20">s</tspan><tspan x="30.5" y="0" class="st5 st1 st20">s </tspan><tspan x="35.8" y="0" class="st5 st1 st20">o</tspan><tspan x="40.7" y="0" class="st5 st1 st20">f </tspan><tspan x="45" y="0" class="st5 st1 st20">i</tspan><tspan x="47" y="0" class="st5 st1 st20">n</tspan><tspan x="51.9" y="0" class="st5 st1 st20">v</tspan><tspan x="56.1" y="0" class="st5 st1 st20">e</tspan><tspan x="60.6" y="0" class="st5 st1 st20">s</tspan><tspan x="64.2" y="0" class="st5 st1 st20">t</tspan><tspan x="67.1" y="0" class="st5 st1 st20">e</tspan><tspan x="71.6" y="0" class="st5 st1 st20">d </tspan><tspan x="78.4" y="0" class="st5 st1 st20">c</tspan><tspan x="82.4" y="0" class="st5 st1 st20">ap</tspan><tspan x="91.8" y="0" class="st5 st1 st20">i</tspan><tspan x="93.8" y="0" class="st5 st1 st20">t</tspan><tspan x="96.8" y="0" class="st5 st1 st20">a</tspan><tspan x="101.1" y="0" class="st5 st1 st20">l</tspan></text>
	<text transform="matrix(1 0 0 1 121.955 4.5361)" class="st5 st1 st21">*</text>
	<text transform="matrix(1 0 0 1 124.1742 7.5332)" class="st5 st1 st20"> </text>
	<text transform="matrix(1 0 0 1 126.0927 7.5332)" class="st5 st1 st20"> </text>
	<text transform="matrix(1 0 0 1 20.1 16.5332)"><tspan x="0" y="0" class="st5 st22 st23">C</tspan><tspan x="4.7" y="0" class="st5 st22 st23">r</tspan><tspan x="7.2" y="0" class="st5 st22 st23">e</tspan><tspan x="11.3" y="0" class="st5 st22 st23">d</tspan><tspan x="15.8" y="0" class="st5 st22 st23">i</tspan><tspan x="17.6" y="0" class="st5 st22 st23">t </tspan><tspan x="21.8" y="0" class="st5 st22 st23">c</tspan><tspan x="25.4" y="0" class="st5 st22 st23">r</tspan><tspan x="28.1" y="0" class="st5 st22 st23">i</tspan><tspan x="29.9" y="0" class="st5 st22 st23">s</tspan><tspan x="33" y="0" class="st5 st22 st23">i</tspan><tspan x="34.8" y="0" class="st5 st22 st23">s </tspan><tspan x="39.6" y="0" class="st5 st22 st23">p</tspan><tspan x="44.2" y="0" class="st5 st22 st23">e</tspan><tspan x="48.2" y="0" class="st5 st22 st23">a</tspan><tspan x="52" y="0" class="st5 st22 st23">k </tspan><tspan x="57.3" y="0" class="st5 st22 st23">t</tspan><tspan x="59.9" y="0" class="st5 st22 st23">o </tspan><tspan x="65.8" y="0" class="st5 st22 st23">t</tspan><tspan x="68.5" y="0" class="st5 st22 st23">r</tspan><tspan x="71" y="0" class="st5 st22 st23">o</tspan><tspan x="75.4" y="0" class="st5 st22 st23">u</tspan><tspan x="79.8" y="0" class="st5 st22 st23">g</tspan><tspan x="84.4" y="0" class="st5 st22 st23">h </tspan><tspan x="90.4" y="0" class="st5 st22 st23">(</tspan><tspan x="92.6" y="0" class="st5 st22 st23">2</tspan><tspan x="96.7" y="0" class="st5 st22 st23">0</tspan><tspan x="100.9" y="0" class="st5 st22 st23">0</tspan><tspan x="104.9" y="0" class="st5 st22 st23">7</tspan><tspan x="108.8" y="0" class="st5 st22 st23">–</tspan><tspan x="112.6" y="0" class="st5 st22 st23">2</tspan><tspan x="116.7" y="0" class="st5 st22 st23">0</tspan><tspan x="120.9" y="0" class="st5 st22 st23">0</tspan><tspan x="125" y="0" class="st5 st22 st23">9</tspan><tspan x="128.8" y="0" class="st5 st22 st23">)</tspan></text>
	<text transform="matrix(1 0 0 1 254.0502 7.5332)"><tspan x="0" y="0" class="st5 st1 st20">T</tspan><tspan x="3.9" y="0" class="st5 st1 st20">o</tspan><tspan x="8.8" y="0" class="st5 st1 st20">t</tspan><tspan x="11.8" y="0" class="st5 st1 st20">a</tspan><tspan x="16.1" y="0" class="st5 st1 st20">l </tspan><tspan x="19.9" y="0" class="st5 st1 st20">g</tspan><tspan x="25" y="0" class="st5 st1 st20">a</tspan><tspan x="29.3" y="0" class="st5 st1 st20">i</tspan><tspan x="31.3" y="0" class="st5 st1 st20">n</tspan><tspan x="36.2" y="0" class="st5 st1 st20">s </tspan><tspan x="41.5" y="0" class="st5 st1 st20">o</tspan><tspan x="46.4" y="0" class="st5 st1 st20">n </tspan><tspan x="53.2" y="0" class="st5 st1 st20">i</tspan><tspan x="55.2" y="0" class="st5 st1 st20">n</tspan><tspan x="60" y="0" class="st5 st1 st20">v</tspan><tspan x="64.3" y="0" class="st5 st1 st20">e</tspan><tspan x="68.8" y="0" class="st5 st1 st20">s</tspan><tspan x="72.4" y="0" class="st5 st1 st20">t</tspan><tspan x="75.2" y="0" class="st5 st1 st20">e</tspan><tspan x="79.7" y="0" class="st5 st1 st20">d </tspan><tspan x="86.5" y="0" class="st5 st1 st20">c</tspan><tspan x="90.6" y="0" class="st5 st1 st20">ap</tspan><tspan x="99.9" y="0" class="st5 st1 st20">i</tspan><tspan x="102" y="0" class="st5 st1 st20">t</tspan><tspan x="105" y="0" class="st5 st1 st20">a</tspan><tspan x="109.2" y="0" class="st5 st1 st20">l</tspan></text>
	<text transform="matrix(1 0 0 1 362.9486 4.5361)"><tspan x="0" y="0" class="st5 st1 st21">*</tspan><tspan x="2.3" y="0" class="st5 st1 st21">*</tspan></text>
	<text transform="matrix(1 0 0 1 367.5023 7.5332)" class="st5 st1 st20"> </text>
	<text transform="matrix(1 0 0 1 369.4203 7.5332)" class="st5 st1 st20"> </text>
	<text transform="matrix(1 0 0 1 254.0502 16.5332)"><tspan x="0" y="0" class="st5 st22 st23">C</tspan><tspan x="4.7" y="0" class="st5 st22 st23">r</tspan><tspan x="7.2" y="0" class="st5 st22 st23">e</tspan><tspan x="11.3" y="0" class="st5 st22 st23">d</tspan><tspan x="15.8" y="0" class="st5 st22 st23">i</tspan><tspan x="17.6" y="0" class="st5 st22 st23">t </tspan><tspan x="21.8" y="0" class="st5 st22 st23">c</tspan><tspan x="25.4" y="0" class="st5 st22 st23">r</tspan><tspan x="28.1" y="0" class="st5 st22 st23">i</tspan><tspan x="29.9" y="0" class="st5 st22 st23">s</tspan><tspan x="33" y="0" class="st5 st22 st23">i</tspan><tspan x="34.8" y="0" class="st5 st22 st23">s </tspan><tspan x="39.6" y="0" class="st5 st22 st23">r</tspan><tspan x="42.1" y="0" class="st5 st22 st23">e</tspan><tspan x="46.2" y="0" class="st5 st22 st23">c</tspan><tspan x="49.7" y="0" class="st5 st22 st23">o</tspan><tspan x="54.1" y="0" class="st5 st22 st23">v</tspan><tspan x="57.9" y="0" class="st5 st22 st23">e</tspan><tspan x="61.9" y="0" class="st5 st22 st23">r</tspan><tspan x="64.7" y="0" class="st5 st22 st23">y </tspan><tspan x="70" y="0" class="st5 st22 st23">(</tspan><tspan x="72.3" y="0" class="st5 st22 st23">2</tspan><tspan x="76.4" y="0" class="st5 st22 st23">0</tspan><tspan x="80.6" y="0" class="st5 st22 st23">0</tspan><tspan x="84.7" y="0" class="st5 st22 st23">9</tspan><tspan x="89" y="0" class="st5 st22 st23">–</tspan><tspan x="92.7" y="0" class="st5 st22 st23">2</tspan><tspan x="96.9" y="0" class="st5 st22 st23">0</tspan><tspan x="100.8" y="0" class="st5 st22 st23">1</tspan><tspan x="104.9" y="0" class="st5 st22 st23">1</tspan><tspan x="108.9" y="0" class="st5 st22 st23">)</tspan></text>
</g>
<g>
	<defs>
		<rect id="SVGID_3_" x="254.1" y="19.7" width="251.5" height="212.3"/>
	</defs>
	<clipPath id="SVGID_4_">
		<use xlink:href="#SVGID_3_"  style="overflow:visible;"/>
	</clipPath>
	<g class="st24">
		<text transform="matrix(1 0 0 1 8.372 228.083)" class="st0 st1 st2">-60%</text>
	</g>
	<g class="st24">
		<text transform="matrix(1 0 0 1 8.2665 205.8359)"><tspan x="0" y="0" class="st0 st1 st2">-</tspan><tspan x="2.1" y="0" class="st0 st1 st2">40%</tspan></text>
	</g>
	<g class="st24">
		<text transform="matrix(1 0 0 1 9.1273 183.5889)"><tspan x="0" y="0" class="st0 st1 st2">-</tspan><tspan x="1.9" y="0" class="st0 st1 st2">20%</tspan></text>
	</g>
	<g class="st24">
		<text transform="matrix(1 0 0 1 14.414 161.3428)" class="st0 st1 st2">0%</text>
	</g>
	<g class="st24">
		<text transform="matrix(1 0 0 1 11.0614 139.0957)" class="st0 st1 st2">20%</text>
	</g>
	<g class="st24">
		<text transform="matrix(1 0 0 1 10.4472 116.8486)" class="st0 st1 st2">40%</text>
	</g>
	<g class="st24">
		<text transform="matrix(1 0 0 1 10.5883 94.6016)" class="st0 st1 st2">60%</text>
	</g>
	<g class="st24">
		<text transform="matrix(1 0 0 1 10.6376 72.3555)" class="st0 st1 st2">80%</text>
	</g>
	<g class="st24">
		<text transform="matrix(1 0 0 1 7.6454 50.1084)" class="st0 st1 st2">100%</text>
	</g>
	<g class="st24">
		<text transform="matrix(1 0 0 1 8.3227 27.8613)" class="st0 st1 st2">120%</text>
	</g>
	<line class="st25" x1="27" y1="226" x2="624" y2="226"/>
	<line class="st25" x1="27" y1="203.7" x2="624" y2="203.7"/>
	<line class="st25" x1="27" y1="181.5" x2="624" y2="181.5"/>
	<line class="st25" x1="27" y1="159.2" x2="624" y2="159.2"/>
	<line class="st25" x1="27" y1="137" x2="624" y2="137"/>
	<line class="st25" x1="27" y1="114.7" x2="624" y2="114.7"/>
	<line class="st25" x1="27" y1="92.5" x2="624" y2="92.5"/>
	<line class="st25" x1="27" y1="70.2" x2="624" y2="70.2"/>
	<line class="st25" x1="27" y1="48" x2="624" y2="48"/>
	<line class="st25" x1="27" y1="25.7" x2="614.6" y2="25.7"/>
</g>
<g>
	<rect x="449.9" y="57.1" class="st5" width="11" height="101.6"/>
	<rect x="417.8" y="69" class="st18" width="10.1" height="89.7"/>
	<rect x="365.4" y="86" class="st6" width="10.1" height="72.6"/>
	<rect x="313" y="104" class="st7" width="10.1" height="54.7"/>
	<rect x="259.7" y="118.3" class="st8" width="11" height="40.4"/>
	<rect x="427.9" y="50.2" class="st19" width="11" height="108.5"/>
	<rect x="375.6" y="73.9" class="st9" width="11" height="84.8"/>
	<rect x="323.1" y="95.6" class="st10" width="10.1" height="63"/>
	<rect x="270.7" y="115.2" class="st11" width="10.1" height="43.5"/>
	<rect x="386.6" y="59.5" class="st12" width="10.1" height="99.1"/>
	<rect x="333.3" y="87.2" class="st13" width="11" height="71.5"/>
	<rect x="280.8" y="110.1" class="st14" width="11" height="48.6"/>
	<rect x="396.7" y="42.7" class="st15" width="10.1" height="116"/>
	<rect x="344.2" y="78.7" class="st16" width="10.1" height="80"/>
	<rect x="291.8" y="105.3" class="st17" width="10.1" height="53.4"/>
	<text transform="matrix(1 0 0 1 28.2108 143.793)"><tspan x="0" y="0" class="st5 st26 st27">C</tspan><tspan x="4.3" y="0" class="st5 st26 st27">ons</tspan><tspan x="15.5" y="0" class="st5 st26 st27">e</tspan><tspan x="19.3" y="0" class="st5 st26 st27">r</tspan><tspan x="21.9" y="0" class="st5 st26 st27">v</tspan><tspan x="25.4" y="0" class="st5 st26 st27">a</tspan><tspan x="29" y="0" class="st5 st26 st27">ti</tspan><tspan x="33.4" y="0" class="st5 st26 st27">v</tspan><tspan x="36.9" y="0" class="st5 st26 st27">e </tspan></text>
	<text transform="matrix(1 0 0 1 69.329 143.793)" class="st5 st26 st27"> </text>
	<text transform="matrix(1 0 0 1 34.5468 150.833)"><tspan x="0" y="0" class="st5 st26 st27">P</tspan><tspan x="3.9" y="0" class="st5 st26 st27">o</tspan><tspan x="8" y="0" class="st5 st26 st27">r</tspan><tspan x="10.6" y="0" class="st5 st26 st27">tf</tspan><tspan x="15.3" y="0" class="st5 st26 st27">oli</tspan><tspan x="23.1" y="0" class="st5 st26 st27">o</tspan></text>
	<text transform="matrix(1 0 0 1 259.8109 170.8682)"><tspan x="0" y="0" class="st5 st26 st27">C</tspan><tspan x="4.3" y="0" class="st5 st26 st27">onse</tspan><tspan x="19.3" y="0" class="st5 st26 st27">r</tspan><tspan x="21.9" y="0" class="st5 st26 st27">v</tspan><tspan x="25.4" y="0" class="st5 st26 st27">a</tspan><tspan x="29" y="0" class="st5 st26 st27">ti</tspan><tspan x="33.4" y="0" class="st5 st26 st27">v</tspan><tspan x="36.9" y="0" class="st5 st26 st27">e </tspan></text>
	<text transform="matrix(1 0 0 1 300.9291 170.8682)" class="st5 st26 st27"> </text>
	<text transform="matrix(1 0 0 1 266.1469 177.9082)"><tspan x="0" y="0" class="st5 st26 st27">P</tspan><tspan x="3.9" y="0" class="st5 st26 st27">o</tspan><tspan x="8" y="0" class="st5 st26 st27">r</tspan><tspan x="10.6" y="0" class="st5 st26 st27">tf</tspan><tspan x="15.3" y="0" class="st5 st26 st27">o</tspan><tspan x="19.4" y="0" class="st5 st26 st27">l</tspan><tspan x="21.3" y="0" class="st5 st26 st27">i</tspan><tspan x="23.1" y="0" class="st5 st26 st27">o</tspan></text>
	<text transform="matrix(1 0 0 1 87.4936 143.793)"><tspan x="0" y="0" class="st5 st26 st27">Balan</tspan><tspan x="17.3" y="0" class="st5 st26 st27">c</tspan><tspan x="20.6" y="0" class="st5 st26 st27">e</tspan><tspan x="24.3" y="0" class="st5 st26 st27">d </tspan></text>
	<text transform="matrix(1 0 0 1 87.872 150.833)"><tspan x="0" y="0" class="st5 st26 st27">P</tspan><tspan x="3.9" y="0" class="st5 st26 st27">o</tspan><tspan x="8" y="0" class="st5 st26 st27">r</tspan><tspan x="10.6" y="0" class="st5 st26 st27">tf</tspan><tspan x="15.3" y="0" class="st5 st26 st27">oli</tspan><tspan x="23.1" y="0" class="st5 st26 st27">o</tspan></text>
	<text transform="matrix(1 0 0 1 319.0941 170.8682)"><tspan x="0" y="0" class="st5 st26 st27">Bala</tspan><tspan x="13.1" y="0" class="st5 st26 st27">n</tspan><tspan x="17.3" y="0" class="st5 st26 st27">c</tspan><tspan x="20.6" y="0" class="st5 st26 st27">e</tspan><tspan x="24.3" y="0" class="st5 st26 st27">d </tspan></text>
	<text transform="matrix(1 0 0 1 319.4721 177.9082)"><tspan x="0" y="0" class="st5 st26 st27">P</tspan><tspan x="3.9" y="0" class="st5 st26 st27">o</tspan><tspan x="8" y="0" class="st5 st26 st27">r</tspan><tspan x="10.6" y="0" class="st5 st26 st27">tf</tspan><tspan x="15.3" y="0" class="st5 st26 st27">oli</tspan><tspan x="23.1" y="0" class="st5 st26 st27">o</tspan></text>
	<text transform="matrix(1 0 0 1 143.2328 143.793)"><tspan x="0" y="0" class="st5 st26 st27">G</tspan><tspan x="4.8" y="0" class="st5 st26 st27">r</tspan><tspan x="7.3" y="0" class="st5 st26 st27">o</tspan><tspan x="11.3" y="0" class="st5 st26 st27">w</tspan><tspan x="16.8" y="0" class="st5 st26 st27">t</tspan><tspan x="19.3" y="0" class="st5 st26 st27">h </tspan></text>
	<text transform="matrix(1 0 0 1 167.828 143.793)" class="st5 st26 st27"> </text>
	<text transform="matrix(1 0 0 1 140.6518 150.833)"><tspan x="0" y="0" class="st5 st26 st27">P</tspan><tspan x="3.9" y="0" class="st5 st26 st27">o</tspan><tspan x="8" y="0" class="st5 st26 st27">r</tspan><tspan x="10.6" y="0" class="st5 st26 st27">tf</tspan><tspan x="15.3" y="0" class="st5 st26 st27">oli</tspan><tspan x="23.1" y="0" class="st5 st26 st27">o</tspan></text>
	<text transform="matrix(1 0 0 1 374.8324 170.8682)"><tspan x="0" y="0" class="st5 st26 st27">G</tspan><tspan x="4.8" y="0" class="st5 st26 st27">r</tspan><tspan x="7.2" y="0" class="st5 st26 st27">o</tspan><tspan x="11.3" y="0" class="st5 st26 st27">w</tspan><tspan x="16.8" y="0" class="st5 st26 st27">t</tspan><tspan x="19.3" y="0" class="st5 st26 st27">h </tspan></text>
	<text transform="matrix(1 0 0 1 399.4281 170.8682)" class="st5 st26 st27"> </text>
	<text transform="matrix(1 0 0 1 372.2514 177.9082)"><tspan x="0" y="0" class="st5 st26 st27">P</tspan><tspan x="3.9" y="0" class="st5 st26 st27">o</tspan><tspan x="8" y="0" class="st5 st26 st27">r</tspan><tspan x="10.6" y="0" class="st5 st26 st27">tf</tspan><tspan x="15.3" y="0" class="st5 st26 st27">o</tspan><tspan x="19.4" y="0" class="st5 st26 st27">l</tspan><tspan x="21.3" y="0" class="st5 st26 st27">i</tspan><tspan x="23.1" y="0" class="st5 st26 st27">o</tspan></text>
	<text transform="matrix(1 0 0 1 181.5502 143.793)"><tspan x="0" y="0" class="st5 st26 st27">A</tspan><tspan x="4.4" y="0" class="st5 st26 st27">g</tspan><tspan x="8.5" y="0" class="st5 st26 st27">g</tspan><tspan x="12.5" y="0" class="st5 st26 st27">r</tspan><tspan x="14.8" y="0" class="st5 st26 st27">essi</tspan><tspan x="25.8" y="0" class="st5 st26 st27">v</tspan><tspan x="29.2" y="0" class="st5 st26 st27">e</tspan></text>
	<text transform="matrix(1 0 0 1 213.9999 143.793)" class="st5 st26 st27"> </text>
	<text transform="matrix(1 0 0 1 186.788 150.833)"><tspan x="0" y="0" class="st5 st26 st27">G</tspan><tspan x="4.7" y="0" class="st5 st26 st27">r</tspan><tspan x="7" y="0" class="st5 st26 st27">o</tspan><tspan x="10.9" y="0" class="st5 st26 st27">w</tspan><tspan x="16.2" y="0" class="st5 st26 st27">th </tspan></text>
	<text transform="matrix(1 0 0 1 210.3749 150.833)" class="st5 st26 st27"> </text>
	<text transform="matrix(1 0 0 1 184.4228 157.873)"><tspan x="0" y="0" class="st5 st26 st27">P</tspan><tspan x="3.8" y="0" class="st5 st26 st27">o</tspan><tspan x="7.8" y="0" class="st5 st26 st27">r</tspan><tspan x="10.2" y="0" class="st5 st26 st27">tf</tspan><tspan x="14.6" y="0" class="st5 st26 st27">olio</tspan></text>
	<text transform="matrix(1 0 0 1 413.1498 170.8682)"><tspan x="0" y="0" class="st5 st26 st27">A</tspan><tspan x="4.4" y="0" class="st5 st26 st27">g</tspan><tspan x="8.5" y="0" class="st5 st26 st27">g</tspan><tspan x="12.5" y="0" class="st5 st26 st27">r</tspan><tspan x="14.8" y="0" class="st5 st26 st27">essi</tspan><tspan x="25.8" y="0" class="st5 st26 st27">v</tspan><tspan x="29.2" y="0" class="st5 st26 st27">e</tspan></text>
	<text transform="matrix(1 0 0 1 445.6 170.8682)" class="st5 st26 st27"> </text>
	<text transform="matrix(1 0 0 1 418.3881 177.9082)"><tspan x="0" y="0" class="st5 st26 st27">G</tspan><tspan x="4.7" y="0" class="st5 st26 st27">r</tspan><tspan x="7" y="0" class="st5 st26 st27">o</tspan><tspan x="10.9" y="0" class="st5 st26 st27">w</tspan><tspan x="16.2" y="0" class="st5 st26 st27">th </tspan></text>
	<text transform="matrix(1 0 0 1 441.975 177.9082)" class="st5 st26 st27"> </text>
	<text transform="matrix(1 0 0 1 416.0229 184.9482)"><tspan x="0" y="0" class="st5 st26 st27">P</tspan><tspan x="3.8" y="0" class="st5 st26 st27">o</tspan><tspan x="7.8" y="0" class="st5 st26 st27">r</tspan><tspan x="10.2" y="0" class="st5 st26 st27">tf</tspan><tspan x="14.6" y="0" class="st5 st26 st27">olio</tspan></text>
	<text transform="matrix(1 0 0 1 218.1151 143.793)"><tspan x="0" y="0" class="st5 st26 st27">A</tspan><tspan x="4.6" y="0" class="st5 st26 st27">l</tspan><tspan x="6.4" y="0" class="st5 st26 st27">l</tspan><tspan x="8.2" y="0" class="st5 st26 st27"> </tspan><tspan x="9.9" y="0" class="st5 st26 st27">E</tspan><tspan x="13.5" y="0" class="st5 st26 st27">qui</tspan><tspan x="23.6" y="0" class="st5 st26 st27">t</tspan><tspan x="26.2" y="0" class="st5 st26 st27">y</tspan></text>
	<text transform="matrix(1 0 0 1 248.268 143.793)" class="st5 st26 st27"> </text>
	<text transform="matrix(1 0 0 1 218.1151 150.833)"><tspan x="0" y="0" class="st5 st26 st27">P</tspan><tspan x="3.9" y="0" class="st5 st26 st27">o</tspan><tspan x="8" y="0" class="st5 st26 st27">r</tspan><tspan x="10.6" y="0" class="st5 st26 st27">tf</tspan><tspan x="15.3" y="0" class="st5 st26 st27">o</tspan><tspan x="19.4" y="0" class="st5 st26 st27">l</tspan><tspan x="21.3" y="0" class="st5 st26 st27">i</tspan><tspan x="23.1" y="0" class="st5 st26 st27">o</tspan></text>
	<text transform="matrix(1 0 0 1 449.7152 170.8682)"><tspan x="0" y="0" class="st5 st26 st27">Al</tspan><tspan x="6.4" y="0" class="st5 st26 st27">l</tspan><tspan x="8.2" y="0" class="st5 st26 st27"> </tspan><tspan x="9.9" y="0" class="st5 st26 st27">E</tspan><tspan x="13.5" y="0" class="st5 st26 st27">q</tspan><tspan x="17.7" y="0" class="st5 st26 st27">u</tspan><tspan x="21.8" y="0" class="st5 st26 st27">i</tspan><tspan x="23.6" y="0" class="st5 st26 st27">t</tspan><tspan x="26.2" y="0" class="st5 st26 st27">y</tspan></text>
	<text transform="matrix(1 0 0 1 479.8676 170.8682)" class="st5 st26 st27"> </text>
	<text transform="matrix(1 0 0 1 449.7152 177.9082)"><tspan x="0" y="0" class="st5 st26 st27">P</tspan><tspan x="3.9" y="0" class="st5 st26 st27">o</tspan><tspan x="8" y="0" class="st5 st26 st27">r</tspan><tspan x="10.6" y="0" class="st5 st26 st27">tf</tspan><tspan x="15.3" y="0" class="st5 st26 st27">o</tspan><tspan x="19.4" y="0" class="st5 st26 st27">l</tspan><tspan x="21.3" y="0" class="st5 st26 st27">i</tspan><tspan x="23.1" y="0" class="st5 st26 st27">o</tspan></text>
	<rect x="200" y="50.3" class="st8" width="7.2" height="7.2"/>
	<rect x="207.2" y="50.3" class="st11" width="7.2" height="7.2"/>
	<rect x="214.4" y="50.3" class="st14" width="7.2" height="7.2"/>
	<rect x="221.6" y="50.3" class="st17" width="7.2" height="7.2"/>
	<text transform="matrix(1 0 0 1 162.9066 56.5938)"><tspan x="0" y="0" class="st28 st26 st29">C</tspan><tspan x="3.7" y="0" class="st28 st26 st29">onse</tspan><tspan x="16.5" y="0" class="st28 st26 st29">r</tspan><tspan x="18.7" y="0" class="st28 st26 st29">v</tspan><tspan x="21.7" y="0" class="st28 st26 st29">a</tspan><tspan x="24.8" y="0" class="st28 st26 st29">ti</tspan><tspan x="28.4" y="0" class="st28 st26 st29">v</tspan><tspan x="31.4" y="0" class="st28 st26 st29">e </tspan></text>
	<text transform="matrix(1 0 0 1 200.0395 42.4414)"><tspan x="0" y="0" class="st28 st1 st30">L</tspan><tspan x="2.3" y="0" class="st28 st1 st30">E</tspan><tspan x="4.6" y="0" class="st28 st1 st30">VER</tspan><tspan x="12.2" y="0" class="st28 st1 st30">A</tspan><tspan x="15.1" y="0" class="st28 st1 st30">GE %</tspan></text>
	<text transform="matrix(1 0 0 1 201.9413 48.6973)" class="st28 st26 st31">0</text>
	<text transform="matrix(1 0 0 1 208.2411 48.6973)" class="st28 st26 st31">1</text>
	<text transform="matrix(1 0 0 1 210.1454 48.6973)" class="st28 st26 st31">0</text>
	<text transform="matrix(1 0 0 1 215.1908 48.6973)" class="st28 st26 st31">2</text>
	<text transform="matrix(1 0 0 1 217.6938 48.6973)" class="st28 st26 st31">0</text>
	<text transform="matrix(1 0 0 1 222.4428 48.6973)" class="st28 st26 st31">3</text>
	<text transform="matrix(1 0 0 1 224.9462 48.6973)" class="st28 st26 st31">0</text>
	<rect x="200" y="59.6" class="st7" width="7.2" height="7.2"/>
	<rect x="207.2" y="59.6" class="st10" width="7.2" height="7.2"/>
	<rect x="214.4" y="59.6" class="st13" width="7.2" height="7.2"/>
	<rect x="221.6" y="59.6" class="st16" width="7.2" height="7.2"/>
	<text transform="matrix(1 0 0 1 162.9066 65.9121)"><tspan x="0" y="0" class="st28 st26 st29">Balan</tspan><tspan x="14.7" y="0" class="st28 st26 st29">c</tspan><tspan x="17.5" y="0" class="st28 st26 st29">ed</tspan></text>
	<rect x="200" y="68.9" class="st6" width="7.2" height="7.2"/>
	<rect x="207.2" y="68.9" class="st9" width="7.2" height="7.2"/>
	<rect x="214.4" y="68.9" class="st12" width="7.2" height="7.2"/>
	<rect x="221.6" y="68.9" class="st15" width="7.2" height="7.2"/>
	<text transform="matrix(1 0 0 1 162.9066 75.2324)"><tspan x="0" y="0" class="st28 st26 st29">G</tspan><tspan x="4.1" y="0" class="st28 st26 st29">r</tspan><tspan x="6.2" y="0" class="st28 st26 st29">o</tspan><tspan x="9.7" y="0" class="st28 st26 st29">w</tspan><tspan x="14.4" y="0" class="st28 st26 st29">th</tspan></text>
	<text transform="matrix(1 0 0 1 162.9066 84.5508)"><tspan x="0" y="0" class="st28 st26 st29">A</tspan><tspan x="3.9" y="0" class="st28 st26 st29">g</tspan><tspan x="7.5" y="0" class="st28 st26 st29">g</tspan><tspan x="11.1" y="0" class="st28 st26 st29">r</tspan><tspan x="13.2" y="0" class="st28 st26 st29">essi</tspan><tspan x="22.9" y="0" class="st28 st26 st29">v</tspan><tspan x="25.9" y="0" class="st28 st26 st29">e </tspan></text>
	<text transform="matrix(1 0 0 1 162.9066 91.3477)"><tspan x="0" y="0" class="st28 st26 st29">G</tspan><tspan x="4.1" y="0" class="st28 st26 st29">r</tspan><tspan x="6.2" y="0" class="st28 st26 st29">o</tspan><tspan x="9.7" y="0" class="st28 st26 st29">w</tspan><tspan x="14.4" y="0" class="st28 st26 st29">th</tspan></text>
	<rect x="200" y="78.3" class="st18" width="7.2" height="7.2"/>
	<rect x="207.2" y="78.3" class="st19" width="7.2" height="7.2"/>
	<rect x="200" y="94.2" class="st5" width="7.2" height="7.2"/>
</g>
<g>
	<defs>
		<rect id="SVGID_5_" x="144.1" y="34.8" width="88.6" height="68.1"/>
	</defs>
	<clipPath id="SVGID_6_">
		<use xlink:href="#SVGID_5_"  style="overflow:visible;"/>
	</clipPath>
	<g class="st32">
		<text transform="matrix(1 0 0 1 162.9066 100.501)"><tspan x="0" y="0" class="st28 st26 st29">All </tspan><tspan x="8.3" y="0" class="st28 st26 st29">E</tspan><tspan x="11.4" y="0" class="st28 st26 st29">qui</tspan><tspan x="20" y="0" class="st28 st26 st29">t</tspan><tspan x="22.2" y="0" class="st28 st26 st29">y</tspan></text>
	</g>
</g>
<g>
	<text transform="matrix(1 0 0 1 162.9062 42.4414)"><tspan x="0" y="0" class="st28 st26 st27">K</tspan><tspan x="3.8" y="0" class="st28 st26 st27">e</tspan><tspan x="7.2" y="0" class="st28 st26 st27">y</tspan></text>
</g>
</svg>
