<?xml version="1.0" encoding="utf-8"?>
<!-- Generator: Adobe Illustrator 19.2.1, SVG Export Plug-In . SVG Version: 6.00 Build 0)  -->
<svg version="1.1" id="Layer_1" xmlns="http://www.w3.org/2000/svg" xmlns:xlink="http://www.w3.org/1999/xlink" x="0px" y="0px"
	 viewBox="0 0 481.2 104" style="enable-background:new 0 0 481.2 104;" xml:space="preserve">
<style type="text/css">
	.st0{enable-background:new    ;}
	.st1{fill:#636466;}
	.st2{font-family:'AmplitudeTF-Light';}
	.st3{font-size:8px;}
	.st4{opacity:0.3;enable-background:new    ;}
	.st5{clip-path:url(#SVGID_2_);}
	.st6{clip-path:url(#SVGID_4_);fill:#677719;}
	.st7{fill:#9CA768;}
	.st8{fill:#A89180;}
	.st9{fill:#677719;}
	.st10{opacity:0.25;enable-background:new    ;}
	.st11{clip-path:url(#SVGID_6_);}
	.st12{clip-path:url(#SVGID_8_);fill:#4F2683;}
	.st13{clip-path:url(#SVGID_10_);}
	.st14{clip-path:url(#SVGID_12_);fill:#54301A;}
	.st15{fill:#4F2683;}
	.st16{fill:#54301A;}
	.st17{clip-path:url(#SVGID_14_);}
	.st18{clip-path:url(#SVGID_16_);fill:#F89828;}
	.st19{fill:#FAAA54;}
	.st20{fill:#F9A13E;}
	.st21{fill:#F89828;}
	.st22{clip-path:url(#SVGID_18_);}
	.st23{clip-path:url(#SVGID_20_);fill:#4E8ABE;}
	.st24{fill:#6F9BC9;}
	.st25{fill:#4E8ABE;}
	.st26{fill:#927DB3;}
	.st27{font-family:'Amplitude-Regular';}
	.st28{font-size:8.1px;}
	.st29{font-family:'Amplitude-Medium';}
	.st30{font-size:7px;}
	.st31{fill:#FFFFFF;}
	.st32{font-size:9px;}
	.st33{letter-spacing:-1;}
</style>
<g>
	<g class="st0">
		<g>
			<g>
				<rect x="54.6" y="93.4" class="st1" width="425.4" height="1"/>
				<text transform="matrix(1 0 0 1 53.9751 102)"><tspan x="0" y="0" class="st2 st3">L</tspan><tspan x="3.4" y="0" class="st2 st3">ess </tspan><tspan x="14.8" y="0" class="st2 st3">r</tspan><tspan x="17.3" y="0" class="st2 st3">is</tspan><tspan x="22" y="0" class="st2 st3">k </tspan></text>
				<text transform="matrix(1 0 0 1 451.8994 102)"><tspan x="0" y="0" class="st2 st3">Mo</tspan><tspan x="10.5" y="0" class="st2 st3">r</tspan><tspan x="12.9" y="0" class="st2 st3">e r</tspan><tspan x="20.8" y="0" class="st2 st3">i</tspan><tspan x="22.5" y="0" class="st2 st3">s</tspan><tspan x="25.5" y="0" class="st2 st3">k</tspan></text>
			</g>
			<g>
				<g class="st4">
					<g>
						<defs>
							<rect id="SVGID_1_" x="281" width="109" height="89"/>
						</defs>
						<clipPath id="SVGID_2_">
							<use xlink:href="#SVGID_1_"  style="overflow:visible;"/>
						</clipPath>
						<g class="st5">
							<defs>
								<rect id="SVGID_3_" x="281" width="109" height="89"/>
							</defs>
							<clipPath id="SVGID_4_">
								<use xlink:href="#SVGID_3_"  style="overflow:visible;"/>
							</clipPath>
							<rect x="281" y="0.5" class="st6" width="109" height="87.6"/>
						</g>
					</g>
				</g>
				<rect x="281" y="55.1" class="st7" width="27.4" height="33"/>
				<rect x="362.6" y="55.1" class="st7" width="27.4" height="33"/>
				<rect x="452.7" y="55.1" class="st8" width="27.3" height="33"/>
				<rect x="281" y="0.5" class="st9" width="109" height="2.1"/>
			</g>
			<g>
				<g class="st10">
					<g>
						<defs>
							<rect id="SVGID_5_" x="394" width="55" height="89"/>
						</defs>
						<clipPath id="SVGID_6_">
							<use xlink:href="#SVGID_5_"  style="overflow:visible;"/>
						</clipPath>
						<g class="st11">
							<defs>
								<rect id="SVGID_7_" x="394" width="55" height="89"/>
							</defs>
							<clipPath id="SVGID_8_">
								<use xlink:href="#SVGID_7_"  style="overflow:visible;"/>
							</clipPath>
							<rect x="394" y="0.5" class="st12" width="54.6" height="87.6"/>
						</g>
					</g>
				</g>
			</g>
			<g>
				<g class="st4">
					<g>
						<defs>
							<rect id="SVGID_9_" x="452" width="29" height="89"/>
						</defs>
						<clipPath id="SVGID_10_">
							<use xlink:href="#SVGID_9_"  style="overflow:visible;"/>
						</clipPath>
						<g class="st13">
							<defs>
								<rect id="SVGID_11_" x="452" width="29" height="89"/>
							</defs>
							<clipPath id="SVGID_12_">
								<use xlink:href="#SVGID_11_"  style="overflow:visible;"/>
							</clipPath>
							<rect x="452.7" y="0.5" class="st14" width="27.3" height="87.6"/>
						</g>
					</g>
				</g>
				<rect x="394" y="0.5" class="st15" width="54.6" height="2.1"/>
				<rect x="452.7" y="0.5" class="st16" width="27.3" height="2.1"/>
			</g>
			<g>
				<g class="st4">
					<g>
						<defs>
							<rect id="SVGID_13_" x="167" width="110" height="89"/>
						</defs>
						<clipPath id="SVGID_14_">
							<use xlink:href="#SVGID_13_"  style="overflow:visible;"/>
						</clipPath>
						<g class="st17">
							<defs>
								<rect id="SVGID_15_" x="167" width="110" height="89"/>
							</defs>
							<clipPath id="SVGID_16_">
								<use xlink:href="#SVGID_15_"  style="overflow:visible;"/>
							</clipPath>
							<rect x="167.8" y="0.5" class="st18" width="109" height="87.6"/>
						</g>
					</g>
				</g>
				<rect x="167.8" y="55.1" class="st19" width="27.4" height="33"/>
				<rect x="249.4" y="55.1" class="st20" width="27.4" height="33"/>
				<rect x="167.8" y="0.5" class="st21" width="109" height="2.1"/>
			</g>
			<g>
				<g class="st4">
					<g>
						<defs>
							<rect id="SVGID_17_" x="54" width="110" height="89"/>
						</defs>
						<clipPath id="SVGID_18_">
							<use xlink:href="#SVGID_17_"  style="overflow:visible;"/>
						</clipPath>
						<g class="st22">
							<defs>
								<rect id="SVGID_19_" x="54" width="110" height="89"/>
							</defs>
							<clipPath id="SVGID_20_">
								<use xlink:href="#SVGID_19_"  style="overflow:visible;"/>
							</clipPath>
							<rect x="54.6" y="0.5" class="st23" width="109" height="87.6"/>
						</g>
					</g>
				</g>
				<rect x="136.2" y="55.1" class="st24" width="27.4" height="33"/>
				<rect x="54.6" y="0.5" class="st25" width="108.9" height="2.1"/>
				<rect x="421.6" y="55.1" class="st26" width="27" height="33"/>
				<rect x="394" y="55.1" class="st26" width="27" height="33"/>
				<text transform="matrix(1 0 0 1.1111 0 20.5)"><tspan x="0" y="0" class="st27 st28">PO</tspan><tspan x="9.9" y="0" class="st27 st28">R</tspan><tspan x="14.1" y="0" class="st27 st28">T</tspan><tspan x="18.2" y="0" class="st27 st28">F</tspan><tspan x="22" y="0" class="st27 st28">OLIO</tspan></text>
				<text transform="matrix(1 0 0 1.1111 81.7949 20.2002)"><tspan x="0" y="0" class="st29 st28">C</tspan><tspan x="4.9" y="0" class="st29 st28">ONSE</tspan><tspan x="25.1" y="0" class="st29 st28">R</tspan><tspan x="29.7" y="0" class="st29 st28">VA</tspan><tspan x="38.9" y="0" class="st29 st28">TI</tspan><tspan x="45.5" y="0" class="st29 st28">V</tspan><tspan x="50.3" y="0" class="st29 st28">E</tspan></text>
				<text transform="matrix(1 0 0 1.1111 202.8711 20.2002)"><tspan x="0" y="0" class="st29 st28">B</tspan><tspan x="4.7" y="0" class="st29 st28">A</tspan><tspan x="10" y="0" class="st29 st28">L</tspan><tspan x="14.1" y="0" class="st29 st28">ANCE</tspan><tspan x="34.4" y="0" class="st29 st28">D</tspan></text>
				<text transform="matrix(1 0 0 1.1111 319.5684 20.2002)"><tspan x="0" y="0" class="st29 st28">G</tspan><tspan x="5.5" y="0" class="st29 st28">R</tspan><tspan x="10.2" y="0" class="st29 st28">O</tspan><tspan x="16" y="0" class="st29 st28">W</tspan><tspan x="23.2" y="0" class="st29 st28">T</tspan><tspan x="27.6" y="0" class="st29 st28">H</tspan></text>
				<text transform="matrix(1 0 0 1.1111 398.749 12.7002)"><tspan x="0" y="0" class="st29 st28">A</tspan><tspan x="5.1" y="0" class="st29 st28">GG</tspan><tspan x="16.2" y="0" class="st29 st28">RE</tspan><tspan x="25.2" y="0" class="st29 st28">S</tspan><tspan x="29.5" y="0" class="st29 st28">SI</tspan><tspan x="36.1" y="0" class="st29 st28">V</tspan><tspan x="40.9" y="0" class="st29 st28">E</tspan></text>
				<text transform="matrix(1 0 0 1.1111 443.8818 12.7002)" class="st29 st28"> </text>
				<text transform="matrix(1 0 0 1.1111 405.501 20.2002)"><tspan x="0" y="0" class="st29 st28">G</tspan><tspan x="5.5" y="0" class="st29 st28">R</tspan><tspan x="10.2" y="0" class="st29 st28">O</tspan><tspan x="16" y="0" class="st29 st28">W</tspan><tspan x="23.2" y="0" class="st29 st28">T</tspan><tspan x="27.6" y="0" class="st29 st28">H</tspan></text>
				<text transform="matrix(1 0 0 1.1111 460.3594 12.7002)"><tspan x="0" y="0" class="st29 st28">AL</tspan><tspan x="8.3" y="0" class="st29 st28">L</tspan></text>
				<text transform="matrix(1 0 0 1.1111 472.3955 12.7002)" class="st29 st28"> </text>
				<text transform="matrix(1 0 0 1.1111 454.4219 20.2002)"><tspan x="0" y="0" class="st29 st28">E</tspan><tspan x="3.7" y="0" class="st29 st28">QUI</tspan><tspan x="15.7" y="0" class="st29 st28">T</tspan><tspan x="19.6" y="0" class="st29 st28">Y</tspan></text>
				<text transform="matrix(1 0 0 1 9.765625e-04 33.5996)"><tspan x="0" y="0" class="st2 st3">L</tspan><tspan x="3.2" y="0" class="st2 st3">e</tspan><tspan x="6.9" y="0" class="st2 st3">v</tspan><tspan x="10.3" y="0" class="st2 st3">e</tspan><tspan x="14" y="0" class="st2 st3">r</tspan><tspan x="16.2" y="0" class="st2 st3">age </tspan><tspan x="29" y="0" class="st2 st3">V</tspan><tspan x="32.9" y="0" class="st2 st3">alu</tspan><tspan x="42.1" y="0" class="st2 st3">e</tspan></text>
				<text transform="matrix(1 0 0 1 68.7632 32.7998)"><tspan x="0" y="0" class="st29 st30">0</tspan><tspan x="3.5" y="0" class="st29 st30">%</tspan></text>
				<text transform="matrix(1 0 0 1 93.3501 32.7998)"><tspan x="0" y="0" class="st29 st30">10</tspan><tspan x="6.9" y="0" class="st29 st30">% </tspan></text>
				<text transform="matrix(1 0 0 1 119.9878 32.7998)"><tspan x="0" y="0" class="st29 st30">20</tspan><tspan x="6.9" y="0" class="st29 st30">% </tspan></text>
				<text transform="matrix(1 0 0 1 147.2344 32.7998)"><tspan x="0" y="0" class="st29 st30">30</tspan><tspan x="6.9" y="0" class="st29 st30">% </tspan></text>
				<text transform="matrix(1 0 0 1 181.9419 32.7998)"><tspan x="0" y="0" class="st29 st30">0</tspan><tspan x="3.5" y="0" class="st29 st30">%</tspan></text>
				<text transform="matrix(1 0 0 1 206.5283 32.7998)"><tspan x="0" y="0" class="st29 st30">1</tspan><tspan x="3.5" y="0" class="st29 st30">0</tspan><tspan x="6.9" y="0" class="st29 st30">% </tspan></text>
				<text transform="matrix(1 0 0 1 233.166 32.7998)"><tspan x="0" y="0" class="st29 st30">2</tspan><tspan x="3.5" y="0" class="st29 st30">0</tspan><tspan x="6.9" y="0" class="st29 st30">% </tspan></text>
				<text transform="matrix(1 0 0 1 260.4131 32.7998)"><tspan x="0" y="0" class="st29 st30">3</tspan><tspan x="3.5" y="0" class="st29 st30">0</tspan><tspan x="6.9" y="0" class="st29 st30">% </tspan></text>
				<text transform="matrix(1 0 0 1 295.1201 32.7998)"><tspan x="0" y="0" class="st29 st30">0</tspan><tspan x="3.5" y="0" class="st29 st30">%</tspan></text>
				<text transform="matrix(1 0 0 1 319.707 32.7998)"><tspan x="0" y="0" class="st29 st30">1</tspan><tspan x="3.5" y="0" class="st29 st30">0</tspan><tspan x="6.9" y="0" class="st29 st30">% </tspan></text>
				<text transform="matrix(1 0 0 1 346.3447 32.7998)"><tspan x="0" y="0" class="st29 st30">2</tspan><tspan x="3.5" y="0" class="st29 st30">0</tspan><tspan x="6.9" y="0" class="st29 st30">%</tspan></text>
				<text transform="matrix(1 0 0 1 373.5918 32.7998)"><tspan x="0" y="0" class="st29 st30">3</tspan><tspan x="3.5" y="0" class="st29 st30">0</tspan><tspan x="6.9" y="0" class="st29 st30">% </tspan></text>
				<text transform="matrix(1 0 0 1 408.2988 32.7998)"><tspan x="0" y="0" class="st29 st30">0</tspan><tspan x="3.5" y="0" class="st29 st30">% </tspan></text>
				<text transform="matrix(1 0 0 1 432.8857 32.7998)"><tspan x="0" y="0" class="st29 st30">1</tspan><tspan x="3.5" y="0" class="st29 st30">0</tspan><tspan x="6.9" y="0" class="st29 st30">%</tspan></text>
				<text transform="matrix(1 0 0 1 466.9844 32.7998)"><tspan x="0" y="0" class="st29 st30">0</tspan><tspan x="3.5" y="0" class="st29 st30">% </tspan></text>
				<text transform="matrix(1 0 0 1 9.765625e-04 49.5996)"><tspan x="0" y="0" class="st2 st3">Sh</tspan><tspan x="8.1" y="0" class="st2 st3">a</tspan><tspan x="11.8" y="0" class="st2 st3">r</tspan><tspan x="14.2" y="0" class="st2 st3">p</tspan><tspan x="18.6" y="0" class="st2 st3">e R</tspan><tspan x="28.2" y="0" class="st2 st3">at</tspan><tspan x="34.4" y="0" class="st2 st3">i</tspan><tspan x="36.1" y="0" class="st2 st3">o</tspan></text>
				<text transform="matrix(1 0 0 1 63.8203 49.5996)"><tspan x="0" y="0" class="st2 st3">0</tspan><tspan x="3.9" y="0" class="st2 st3">.6</tspan><tspan x="9.4" y="0" class="st2 st3">3</tspan></text>
				<text transform="matrix(1 0 0 1 91.0669 49.5996)"><tspan x="0" y="0" class="st2 st3">0</tspan><tspan x="3.9" y="0" class="st2 st3">.</tspan><tspan x="5.4" y="0" class="st2 st3">6</tspan><tspan x="9.4" y="0" class="st2 st3">0</tspan></text>
				<text transform="matrix(1 0 0 1 118.3135 49.5996)"><tspan x="0" y="0" class="st2 st3">0</tspan><tspan x="3.9" y="0" class="st2 st3">.</tspan><tspan x="5.4" y="0" class="st2 st3">5</tspan><tspan x="9.4" y="0" class="st2 st3">9</tspan></text>
				<text transform="matrix(1 0 0 1 145.5601 49.5996)"><tspan x="0" y="0" class="st2 st3">0.</tspan><tspan x="5.4" y="0" class="st2 st3">5</tspan><tspan x="9.4" y="0" class="st2 st3">7</tspan></text>
				<text transform="matrix(1 0 0 1 176.999 49.5996)"><tspan x="0" y="0" class="st2 st3">0.</tspan><tspan x="5.4" y="0" class="st2 st3">4</tspan><tspan x="9.4" y="0" class="st2 st3">9</tspan></text>
				<text transform="matrix(1 0 0 1 204.2456 49.5996)"><tspan x="0" y="0" class="st2 st3">0.4</tspan><tspan x="9.4" y="0" class="st2 st3">7</tspan></text>
				<text transform="matrix(1 0 0 1 231.4922 49.5996)"><tspan x="0" y="0" class="st2 st3">0.4</tspan><tspan x="9.4" y="0" class="st2 st3">6</tspan></text>
				<text transform="matrix(1 0 0 1 258.7393 49.5996)"><tspan x="0" y="0" class="st2 st3">0.4</tspan><tspan x="9.4" y="0" class="st2 st3">5</tspan></text>
				<text transform="matrix(1 0 0 1 290.1777 49.5996)"><tspan x="0" y="0" class="st2 st3">0.4</tspan><tspan x="9.4" y="0" class="st2 st3">1</tspan></text>
				<text transform="matrix(1 0 0 1 317.4238 49.5996)"><tspan x="0" y="0" class="st2 st3">0.4</tspan><tspan x="9.4" y="0" class="st2 st3">0</tspan></text>
				<text transform="matrix(1 0 0 1 344.6709 49.5996)"><tspan x="0" y="0" class="st2 st3">0.3</tspan><tspan x="9.4" y="0" class="st2 st3">9</tspan></text>
				<text transform="matrix(1 0 0 1 371.917 49.5996)"><tspan x="0" y="0" class="st2 st3">0.3</tspan><tspan x="9.4" y="0" class="st2 st3">9</tspan></text>
				<text transform="matrix(1 0 0 1 403.3555 49.5996)"><tspan x="0" y="0" class="st2 st3">0.3</tspan><tspan x="9.4" y="0" class="st2 st3">7</tspan></text>
				<text transform="matrix(1 0 0 1 430.6025 49.5996)"><tspan x="0" y="0" class="st2 st3">0.3</tspan><tspan x="9.4" y="0" class="st2 st3">6</tspan></text>
				<text transform="matrix(1 0 0 1 462.041 49.5996)"><tspan x="0" y="0" class="st2 st3">0</tspan><tspan x="4" y="0" class="st2 st3">.</tspan><tspan x="5.4" y="0" class="st2 st3">3</tspan><tspan x="9.4" y="0" class="st2 st3">5</tspan></text>
				<text transform="matrix(1 0 0 1 9.765625e-04 65.5996)"><tspan x="0" y="0" class="st2 st3">V</tspan><tspan x="4" y="0" class="st2 st3">o</tspan><tspan x="8.2" y="0" class="st2 st3">l</tspan><tspan x="9.9" y="0" class="st2 st3">at</tspan><tspan x="16.1" y="0" class="st2 st3">il</tspan><tspan x="19.6" y="0" class="st2 st3">i</tspan><tspan x="21.3" y="0" class="st2 st3">t</tspan><tspan x="23.8" y="0" class="st2 st3">y</tspan></text>
				<text transform="matrix(1 0 0 1 61.1001 65.5996)"><tspan x="0" y="0" class="st2 st3">6</tspan><tspan x="4" y="0" class="st2 st3">.1</tspan><tspan x="9.4" y="0" class="st2 st3">%</tspan></text>
				<text transform="matrix(1 0 0 1 88.3472 65.5996)"><tspan x="0" y="0" class="st2 st3">6</tspan><tspan x="3.9" y="0" class="st2 st3">.</tspan><tspan x="5.4" y="0" class="st2 st3">7</tspan><tspan x="9.4" y="0" class="st2 st3">%</tspan></text>
				<text transform="matrix(1 0 0 1 115.5938 65.5996)"><tspan x="0" y="0" class="st2 st3">7</tspan><tspan x="3.9" y="0" class="st2 st3">.</tspan><tspan x="5.4" y="0" class="st2 st3">3</tspan><tspan x="9.4" y="0" class="st2 st3">%</tspan></text>
				<text transform="matrix(1 0 0 1 142.8403 65.5996)"><tspan x="0" y="0" class="st2 st3">7</tspan><tspan x="3.9" y="0" class="st2 st3">.</tspan><tspan x="5.4" y="0" class="st2 st3">9</tspan><tspan x="9.4" y="0" class="st2 st3">%</tspan></text>
				<text transform="matrix(1 0 0 1 174.2788 65.5996)"><tspan x="0" y="0" class="st2 st3">8.</tspan><tspan x="5.4" y="0" class="st2 st3">9</tspan><tspan x="9.4" y="0" class="st2 st3">%</tspan></text>
				<text transform="matrix(1 0 0 1 201.5254 65.5996)"><tspan x="0" y="0" class="st2 st3">9.8</tspan><tspan x="9.4" y="0" class="st2 st3">%</tspan></text>
				<text transform="matrix(1 0 0 1 224.4521 65.5996)"><tspan x="0" y="0" class="st2 st3">10.6</tspan><tspan x="13.3" y="0" class="st2 st3">%</tspan></text>
				<text transform="matrix(1 0 0 1 251.6992 65.5996)"><tspan x="0" y="0" class="st2 st3">11.5</tspan><tspan x="13.3" y="0" class="st2 st3">%</tspan></text>
				<text transform="matrix(1 0 0 1 283.1377 65.5996)"><tspan x="0" y="0" class="st2 st3">11.9</tspan><tspan x="13.3" y="0" class="st2 st3">%</tspan></text>
				<text transform="matrix(1 0 0 1 310.3838 65.5996)"><tspan x="0" y="0" class="st2 st3">13.</tspan><tspan x="9.4" y="0" class="st2 st3">1</tspan><tspan x="13.3" y="0" class="st2 st3">%</tspan></text>
				<text transform="matrix(1 0 0 1 337.6309 65.5996)"><tspan x="0" y="0" class="st2 st3">14.</tspan><tspan x="9.4" y="0" class="st2 st3">3</tspan><tspan x="13.3" y="0" class="st2 st3">%</tspan></text>
				<text transform="matrix(1 0 0 1 364.8779 65.5996)"><tspan x="0" y="0" class="st2 st3">15.</tspan><tspan x="9.4" y="0" class="st2 st3">4</tspan><tspan x="13.3" y="0" class="st2 st3">%</tspan></text>
				<text transform="matrix(1 0 0 1 396.3164 65.5996)"><tspan x="0" y="0" class="st2 st3">15.6</tspan><tspan x="13.3" y="0" class="st2 st3">%</tspan></text>
				<text transform="matrix(1 0 0 1 423.5625 65.5996)"><tspan x="0" y="0" class="st2 st3">17.2</tspan><tspan x="13.3" y="0" class="st2 st3">%</tspan></text>
				<text transform="matrix(1 0 0 1 455.001 65.5996)"><tspan x="0" y="0" class="st2 st3">1</tspan><tspan x="4" y="0" class="st2 st3">7</tspan><tspan x="7.9" y="0" class="st2 st3">.</tspan><tspan x="9.4" y="0" class="st2 st3">5</tspan><tspan x="13.3" y="0" class="st2 st3">%</tspan></text>
				<text transform="matrix(1 0 0 1 9.765625e-04 81.5996)"><tspan x="0" y="0" class="st2 st3">R</tspan><tspan x="4.1" y="0" class="st2 st3">e</tspan><tspan x="7.9" y="0" class="st2 st3">tur</tspan><tspan x="17.1" y="0" class="st2 st3">n</tspan></text>
				<text transform="matrix(1 0 0 1 61.1001 81.5996)"><tspan x="0" y="0" class="st2 st3">5</tspan><tspan x="4" y="0" class="st2 st3">.8</tspan><tspan x="9.4" y="0" class="st2 st3">%</tspan></text>
				<text transform="matrix(1 0 0 1 88.3472 81.5996)"><tspan x="0" y="0" class="st2 st3">6</tspan><tspan x="3.9" y="0" class="st2 st3">.</tspan><tspan x="5.4" y="0" class="st2 st3">0</tspan><tspan x="9.4" y="0" class="st2 st3">%</tspan></text>
				<text transform="matrix(1 0 0 1 115.5938 81.5996)"><tspan x="0" y="0" class="st2 st3">6</tspan><tspan x="3.9" y="0" class="st2 st3">.</tspan><tspan x="5.4" y="0" class="st2 st3">3</tspan><tspan x="9.4" y="0" class="st2 st3">%</tspan></text>
				<text transform="matrix(1 0 0 1 141.8008 81.3994)"><tspan x="0" y="0" class="st31 st29 st32">6</tspan><tspan x="4.3" y="0" class="st31 st29 st32">.</tspan><tspan x="6" y="0" class="st31 st29 st32">5</tspan><tspan x="10.3" y="0" class="st31 st29 st32">%</tspan></text>
				<text transform="matrix(1 0 0 1 173.0771 81.3994)"><tspan x="0" y="0" class="st31 st29 st32">6</tspan><tspan x="4.3" y="0" class="st31 st29 st32">.</tspan><tspan x="6" y="0" class="st31 st29 st32">3</tspan><tspan x="10.4" y="0" class="st31 st29 st32">%</tspan></text>
				<text transform="matrix(1 0 0 1 201.5254 81.5996)"><tspan x="0" y="0" class="st2 st3">6.6</tspan><tspan x="9.4" y="0" class="st2 st3">%</tspan></text>
				<text transform="matrix(1 0 0 1 228.772 81.5996)"><tspan x="0" y="0" class="st2 st3">6.9</tspan><tspan x="9.4" y="0" class="st2 st3">%</tspan></text>
				<text transform="matrix(1 0 0 1 256.2749 81.3994)"><tspan x="0" y="0" class="st31 st29 st32 st33">7</tspan><tspan x="3.5" y="0" class="st31 st29 st32">.2</tspan><tspan x="9.6" y="0" class="st31 st29 st32">%</tspan></text>
				<text transform="matrix(1 0 0 1 286.2197 81.3994)"><tspan x="0" y="0" class="st31 st29 st32">6</tspan><tspan x="4.3" y="0" class="st31 st29 st32">.</tspan><tspan x="5.4" y="0" class="st31 st29 st32">9</tspan><tspan x="9.9" y="0" class="st31 st29 st32">%</tspan></text>
				<text transform="matrix(1 0 0 1 314.7041 81.5996)"><tspan x="0" y="0" class="st2 st3">7.3</tspan><tspan x="9.4" y="0" class="st2 st3">%</tspan></text>
				<text transform="matrix(1 0 0 1 341.9512 81.5996)"><tspan x="0" y="0" class="st2 st3">7.6</tspan><tspan x="9.4" y="0" class="st2 st3">%</tspan></text>
				<text transform="matrix(1 0 0 1 367.3564 81.3994)"><tspan x="0" y="0" class="st31 st29 st32">8</tspan><tspan x="4.4" y="0" class="st31 st29 st32">.</tspan><tspan x="5.8" y="0" class="st31 st29 st32">0</tspan><tspan x="10.3" y="0" class="st31 st29 st32">%</tspan></text>
				<text transform="matrix(1 0 0 1 402.5479 81.5996)"><tspan x="0" y="0" class="st31 st29 st3">7</tspan><tspan x="3.1" y="0" class="st31 st29 st3">.</tspan><tspan x="4.5" y="0" class="st31 st29 st3">8</tspan><tspan x="8.4" y="0" class="st31 st29 st3">%</tspan></text>
				<text transform="matrix(1 0 0 1 428.8184 81.5996)"><tspan x="0" y="0" class="st31 st29 st3">8</tspan><tspan x="3.9" y="0" class="st31 st29 st3">.</tspan><tspan x="5.4" y="0" class="st31 st29 st3">2</tspan><tspan x="9.3" y="0" class="st31 st29 st3">%</tspan></text>
				<text transform="matrix(1 0 0 1 459.3525 81.3994)"><tspan x="0" y="0" class="st31 st29 st32">8</tspan><tspan x="4.3" y="0" class="st31 st29 st32">.</tspan><tspan x="6" y="0" class="st31 st29 st32">1</tspan><tspan x="10.1" y="0" class="st31 st29 st32">%</tspan></text>
			</g>
		</g>
	</g>
</g>
</svg>
