<?xml version="1.0" encoding="utf-8"?>
<!-- Generator: Adobe Illustrator 19.2.1, SVG Export Plug-In . SVG Version: 6.00 Build 0)  -->
<svg version="1.1" id="Layer_1" xmlns="http://www.w3.org/2000/svg" xmlns:xlink="http://www.w3.org/1999/xlink" x="0px" y="0px"
	 viewBox="0 0 470 236.3" style="enable-background:new 0 0 470 236.3;" xml:space="preserve">
<style type="text/css">
	.st0{fill:#DCDDDE;}
	.st1{clip-path:url(#SVGID_2_);fill:none;stroke:#FFFFFF;stroke-linejoin:round;stroke-miterlimit:10;}
	.st2{fill:none;stroke:#FFFFFF;stroke-linejoin:round;stroke-miterlimit:10;}
	.st3{clip-path:url(#SVGID_4_);fill:none;stroke:#FFFFFF;stroke-width:1.142;stroke-linejoin:round;stroke-miterlimit:10;}
	.st4{fill:#636466;}
	.st5{font-family:'ArialMT';}
	.st6{font-size:7px;}
	.st7{font-size:9px;}
	.st8{fill:none;stroke:#54301A;stroke-width:1.5;stroke-linecap:round;stroke-linejoin:round;stroke-miterlimit:10;}
	.st9{fill:none;stroke:#808285;stroke-width:1.5;stroke-linecap:round;stroke-linejoin:round;stroke-miterlimit:10;}
	.st10{fill:none;stroke:#000000;stroke-width:1.5;stroke-linecap:round;stroke-linejoin:round;stroke-miterlimit:10;}
	
		.st11{fill:none;stroke:#54301A;stroke-width:1.5;stroke-linecap:round;stroke-linejoin:round;stroke-miterlimit:10;stroke-dasharray:0,3;}
	
		.st12{fill:none;stroke:#808285;stroke-width:1.5;stroke-linecap:round;stroke-linejoin:round;stroke-miterlimit:10;stroke-dasharray:0,3;}
	
		.st13{fill:none;stroke:#000000;stroke-width:1.5;stroke-linecap:round;stroke-linejoin:round;stroke-miterlimit:10;stroke-dasharray:0,3;}
	.st14{clip-path:url(#SVGID_6_);fill:none;stroke:#FFFFFF;stroke-linejoin:round;stroke-miterlimit:10;}
	.st15{fill:none;stroke:#54301A;stroke-width:1.498;stroke-linecap:round;stroke-linejoin:round;stroke-miterlimit:10;}
	.st16{fill:none;stroke:#808285;stroke-width:1.498;stroke-linecap:round;stroke-linejoin:round;stroke-miterlimit:10;}
	.st17{fill:none;stroke:#000000;stroke-width:1.498;stroke-linecap:round;stroke-linejoin:round;stroke-miterlimit:10;}
	
		.st18{clip-path:url(#SVGID_8_);fill:none;stroke:#808285;stroke-width:1.5;stroke-linecap:round;stroke-linejoin:round;stroke-miterlimit:10;stroke-dasharray:0,3;}
	
		.st19{clip-path:url(#SVGID_10_);fill:none;stroke:#54301A;stroke-width:1.5;stroke-linecap:round;stroke-linejoin:round;stroke-miterlimit:10;stroke-dasharray:0,3;}
	
		.st20{clip-path:url(#SVGID_12_);fill:none;stroke:#000000;stroke-width:1.5;stroke-linecap:round;stroke-linejoin:round;stroke-miterlimit:10;stroke-dasharray:0,3;}
	.st21{clip-path:url(#SVGID_14_);}
</style>
<g>
	<rect x="357.3" y="5.5" class="st0" width="105.8" height="194.9"/>
</g>
<g>
	<g>
		<defs>
			<rect id="SVGID_1_" width="464.4" height="213.5"/>
		</defs>
		<clipPath id="SVGID_2_">
			<use xlink:href="#SVGID_1_"  style="overflow:visible;"/>
		</clipPath>
		<path class="st1" d="M10.7,175.9h558 M10.7,151.5h558 M10.7,127.1h558 M10.7,103.2h558 M10.7,78.7h558 M10.7,54.3h558 M10.7,29.9
			h558 M10.7,5.5h558"/>
	</g>
</g>
<g>
	<line class="st2" x1="10.7" y1="200.4" x2="10.7" y2="5.5"/>
</g>
<g>
	<g>
		<defs>
			<rect id="SVGID_3_" width="464.4" height="213.5"/>
		</defs>
		<clipPath id="SVGID_4_">
			<use xlink:href="#SVGID_3_"  style="overflow:visible;"/>
		</clipPath>
		<line class="st3" x1="10.7" y1="200.4" x2="463.1" y2="200.4"/>
	</g>
</g>
<g>
	<text transform="matrix(1 0 0 1 2.8496 178.6227)" class="st4 st5 st6">1</text>
	<text transform="matrix(1 0 0 1 2.1914 200.6237)" class="st4 st5 st6">0</text>
	<text transform="matrix(1 0 0 1 2.2407 154.1998)" class="st4 st5 st6">2</text>
	<text transform="matrix(1 0 0 1 2.1777 129.7765)" class="st4 st5 st6">3</text>
	<text transform="matrix(1 0 0 1 1.6318 105.3536)" class="st4 st5 st6">4</text>
	<text transform="matrix(1 0 0 1 2.2266 80.9308)" class="st4 st5 st6">5</text>
	<text transform="matrix(1 0 0 1 1.7715 56.5074)" class="st4 st5 st6">6</text>
	<text transform="matrix(1 0 0 1 2.2617 32.0846)" class="st4 st5 st6">7</text>
	<text transform="matrix(1 0 0 1 1.8208 7.6617)" class="st4 st5 st6">8</text>
	<text transform="matrix(1 0 0 1 271.7578 40.1886)" class="st4 st5 st7">3</text>
	<text transform="matrix(1 0 0 1 275.9883 40.1886)" class="st4 st5 st7">m</text>
	<text transform="matrix(1 0 0 1 283.4854 40.1886)" class="st4 st5 st7"> </text>
	<text transform="matrix(1 0 0 1 285.0781 40.1886)" class="st4 st5 st7">U</text>
	<text transform="matrix(1 0 0 1 290.3613 40.1886)" class="st4 st5 st7">.</text>
	<text transform="matrix(1 0 0 1 292.7549 40.1886)" class="st4 st5 st7">S</text>
	<text transform="matrix(1 0 0 1 297.624 40.1886)" class="st4 st5 st7">.</text>
	<text transform="matrix(1 0 0 1 300.0176 40.1886)" class="st4 st5 st7"> </text>
	<text transform="matrix(1 0 0 1 302.2949 40.1886)" class="st4 st5 st7">LIBOR</text>
	<text transform="matrix(1 0 0 1 271.7578 52.1852)" class="st4 st5 st7">3</text>
	<text transform="matrix(1 0 0 1 275.9883 52.1852)" class="st4 st5 st7">m</text>
	<text transform="matrix(1 0 0 1 283.4854 52.1852)" class="st4 st5 st7"> </text>
	<text transform="matrix(1 0 0 1 285.0781 52.1852)" class="st4 st5 st7">EURIBOR</text>
	<text transform="matrix(1 0 0 1 271.7578 64.1823)" class="st4 st5 st7">3</text>
	<text transform="matrix(1 0 0 1 275.9883 64.1823)" class="st4 st5 st7">m</text>
	<text transform="matrix(1 0 0 1 283.4854 64.1823)" class="st4 st5 st7"> </text>
	<text transform="matrix(1 0 0 1 285.0781 64.1823)" class="st4 st5 st7">GBP LIBOR</text>
	<text transform="matrix(1 0 0 1 329.2734 24.0763)" class="st4 st5 st6">ACTUAL</text>
	<line class="st8" x1="332.4" y1="37.3" x2="348.7" y2="37.3"/>
	<line class="st9" x1="332.4" y1="49.3" x2="348.7" y2="49.3"/>
	<line class="st10" x1="332.4" y1="61.3" x2="348.7" y2="61.3"/>
	<text transform="matrix(1 0 0 1 361.2773 24.0763)" class="st4 st5 st6">FORWARD</text>
	<line class="st11" x1="367.7" y1="37.3" x2="384" y2="37.3"/>
	<line class="st12" x1="367.7" y1="49.3" x2="384" y2="49.3"/>
	<line class="st13" x1="367.7" y1="61.3" x2="384" y2="61.3"/>
</g>
<g>
	<g>
		<defs>
			<rect id="SVGID_5_" width="464.4" height="213.5"/>
		</defs>
		<clipPath id="SVGID_6_">
			<use xlink:href="#SVGID_5_"  style="overflow:visible;"/>
		</clipPath>
		<line class="st14" x1="463.1" y1="198.3" x2="463.1" y2="200.3"/>
	</g>
</g>
<g>
	<line class="st2" x1="417.7" y1="198.3" x2="417.7" y2="200.3"/>
	<line class="st2" x1="440.4" y1="198.3" x2="440.4" y2="200.3"/>
	<line class="st2" x1="395" y1="198.3" x2="395" y2="200.3"/>
	<line class="st2" x1="372.3" y1="198.3" x2="372.3" y2="200.3"/>
	<line class="st2" x1="349.6" y1="198.3" x2="349.6" y2="200.3"/>
	<line class="st2" x1="326.9" y1="198.3" x2="326.9" y2="200.3"/>
	<line class="st2" x1="304.2" y1="198.3" x2="304.2" y2="200.3"/>
	<line class="st2" x1="281.5" y1="198.3" x2="281.5" y2="200.3"/>
	<line class="st2" x1="258.8" y1="198.3" x2="258.8" y2="200.3"/>
	<line class="st2" x1="236.1" y1="198.3" x2="236.1" y2="200.3"/>
	<line class="st2" x1="213.4" y1="198.3" x2="213.4" y2="200.3"/>
	<line class="st2" x1="190.7" y1="198.3" x2="190.7" y2="200.3"/>
	<line class="st2" x1="168" y1="198.3" x2="168" y2="200.3"/>
	<line class="st2" x1="145.3" y1="198.3" x2="145.3" y2="200.3"/>
	<line class="st2" x1="122.6" y1="198.3" x2="122.6" y2="200.3"/>
	<line class="st2" x1="99.9" y1="198.3" x2="99.9" y2="200.3"/>
	<line class="st2" x1="77.2" y1="198.3" x2="77.2" y2="200.3"/>
	<line class="st2" x1="54.5" y1="198.3" x2="54.5" y2="200.3"/>
	<line class="st2" x1="31.8" y1="198.3" x2="31.8" y2="200.3"/>
	<path class="st15" d="M356,193.3l1.3-0.7 M354.7,193.3h1.2 M353.5,193.3h1.2 M352.3,193.3h1.2 M351,193.3h1.2 M349.8,193.3h1.2
		 M348.5,193.3h1.2 M347.3,194.1l1.2-0.8 M346,194.1h1.2 M344.8,194.1h1.2 M343.5,194.1h1.2 M342.3,194.1h1.2 M341,194.1h1.2
		 M339.8,194.1h1.2 M337.3,194.1h2.5 M336,194.1h1.2 M334.8,194.1h1.2 M333.6,194.1h1.2 M332.3,194.1h1.2 M331.1,194.1h1.2
		 M329.8,194.1h1.2 M328.6,193.3l1.2,0.8 M327.3,193.3h1.2 M326.1,193.3h1.2 M324.8,193.3h1.2 M323.6,193.3h1.2 M322.3,193.3h1.2
		 M321.1,193.3h1.2 M319.8,193.3h1.2 M318.6,193.3h1.2 M317.3,193.3h1.2 M316.1,193.3h1.2 M314.9,193.3h1.2 M313.6,193.3h1.2
		 M312.4,193.3h1.2 M311.1,193.3h1.2 M309.9,193.3h1.2 M308.6,193.3h1.2 M307.4,192.1l1.2,1.2 M304.9,192.1h2.5 M303.6,192.1h1.2
		 M302.4,192.1h1.2 M301.1,192.1h1.2 M299.9,192.1h1.2 M298.6,190.8l1.2,1.2 M297.4,190.8h1.2 M296.2,189.6l1.2,1.2 M294.9,188.4
		l1.3,1.2 M293.7,188.4h1.2 M292.4,188.4h1.2 M291.2,188.4h1.2 M289.9,188.4h1.2 M288.7,188.4h1.2 M287.4,188.4h1.2 M286.2,188.4
		h1.2 M284.9,187.2l1.2,1.2 M283.7,185.9l1.2,1.2 M282.4,185.9h1.2 M281.2,185.9h1.2 M279.9,187.2l1.2-1.2 M278.7,189.6l1.2-2.5
		 M277.5,189.6h1.2 M276.2,190.8l1.2-1.2 M275,192.1l1.2-1.2 M272.5,192.1h2.5 M271.2,193.3l1.2-1.2 M270,193.3h1.2 M268.7,193.3
		h1.2 M267.5,193.3h1.2 M266.2,193.3h1.2 M265,193.3h1.2 M263.7,192.1l1.2,1.2 M262.5,192.1h1.2 M261.2,192.1h1.2 M260,192.1h1.2
		 M258.8,192.1h1.2 M257.5,192.1h1.2 M256.3,193.3l1.2-1.2 M255,192.1l1.2,1.2 M253.8,192.1h1.2 M252.5,192.1h1.2 M251.3,192.1h1.2
		 M250,189.6l1.3,2.5 M248.8,187.2l1.2,2.5 M247.5,187.2h1.2 M246.3,187.2h1.2 M245,187.2h1.2 M245,189.6v-2.5 M243.8,192.1l1.2-2.5
		 M242.5,192.1h1.2 M241.3,193.3l1.2-1.2 M240,193.3h1.2 M238.8,193.3h1.2 M237.6,193.3h1.2 M236.3,193.3h1.2 M235.1,193.3h1.2
		 M233.8,193.3h1.2 M232.6,193.3h1.2 M231.3,193.3h1.2 M228.8,192.1l2.5,1.2 M228.8,189.6v2.5 M227.6,188.4l1.2,1.2 M226.3,187.2
		l1.2,1.2 M225.1,185.9l1.2,1.2 M223.8,184.7l1.2,1.2 M222.6,183.5l1.2,1.2 M222.6,179.8v3.7 M222.6,177.3v2.5 M221.3,174.9l1.2,2.5
		 M221.3,172.4v2.5 M220.1,171.2l1.2,1.2 M218.9,170l1.2,1.2 M218.9,167.5v2.5 M217.6,168.7l1.2-1.2 M216.4,170l1.2-1.2
		 M215.1,172.4l1.2-2.5 M215.1,168.7v3.7 M213.9,165.1l1.2,3.7 M213.9,163.8v1.2 M212.6,152.8l1.2,11.1 M212.6,145.4v7.4
		 M211.4,147.9l1.2-2.5 M211.4,145.4v2.5 M211.4,144.2v1.2 M210.1,125.8l1.2,18.4 M210.1,114.7v11.1 M210.1,92.6v22.1 M208.9,82.8
		l1.2,9.8 M208.9,93.8v-11 M207.6,108.6l1.2-14.7 M207.6,122.1v-13.5 M206.4,131.9l1.2-9.8 M205.1,131.9h1.2 M203.9,131.9h1.2
		 M202.6,131.9h1.2 M201.4,131.9h1.2 M201.4,134.4v-2.5 M200.2,134.4h1.2 M198.9,131.9l1.2,2.5 M198.9,129.4v2.5 M196.4,134.4
		l2.5-4.9 M196.4,136.8v-2.5 M196.4,133.1v3.7 M195.2,128.2l1.2,4.9 M195.2,124.5v3.7 M193.9,124.5h1.2 M192.7,119.6l1.2,4.9
		 M192.7,104.9v14.7 M192.7,96.3v8.6 M191.4,87.7l1.2,8.6 M191.4,85.2v2.5 M191.4,81.5v3.7 M190.2,79.1l1.2,2.5 M190.2,75.4v3.7
		 M188.9,77.9l1.2-2.5 M188.9,79.1v-1.2 M187.7,81.5l1.2-2.5 M187.7,79.1v2.5 M186.4,74.2l1.2,4.9 M186.4,73v1.2 M185.2,73h1.2
		 M185.2,63.1V73 M183.9,60.7l1.2,2.5 M183.9,63.1v-2.5 M182.7,65.6l1.2-2.5 M182.7,64.4v1.2 M182.7,69.3v-4.9 M181.5,69.3h1.2
		 M180.2,69.3h1.2 M179,69.3h1.2 M177.7,69.3h1.2 M175.2,69.3h2.5 M174,69.3h1.2 M172.7,70.5l1.2-1.2 M171.5,69.3l1.2,1.2
		 M170.2,69.3h1.2 M169,69.3h1.2 M167.7,69.3h1.2 M166.5,69.3h1.2 M165.2,69.3h1.2 M164,69.3h1.2 M162.8,69.3h1.2 M161.5,69.3h1.2
		 M160.3,68l1.2,1.2 M160.3,65.6V68 M159,65.6h1.2 M157.8,66.8l1.2-1.2 M156.5,68l1.2-1.2 M156.5,70.5V68 M155.3,73l1.2-2.5
		 M154,74.2l1.2-1.2 M152.8,75.4l1.2-1.2 M152.8,77.9v-2.5 M151.5,79.1l1.2-1.2 M150.3,80.3l1.2-1.2 M150.3,82.8v-2.5 M149,84
		l1.2-1.2 M147.8,86.5L149,84 M147.8,87.7v-1.2 M146.5,88.9l1.2-1.2 M145.3,91.4l1.2-2.5 M144.1,92.6l1.2-1.2 M142.8,93.8l1.2-1.2
		 M142.8,96.3v-2.5 M141.6,98.7l1.2-2.5 M140.3,101.2l1.2-2.5 M140.3,103.7v-2.5 M139.1,106.1l1.2-2.5 M139.1,108.6v-2.5
		 M139.1,106.1v2.5 M137.8,107.3l1.2-1.2 M136.6,109.8l1.2-2.5 M136.6,112.2v-2.5 M135.3,113.5l1.2-1.2 M135.3,114.7v-1.2
		 M134.1,117.2l1.2-2.5 M132.8,118.4l1.2-1.2 M131.6,120.8l1.2-2.5 M131.6,122.1v-1.2 M130.3,123.3l1.2-1.2 M129.1,124.5l1.2-1.2
		 M127.8,127l1.2-2.5 M127.8,129.4V127 M126.6,130.7l1.2-1.2 M126.6,131.9v-1.2 M125.4,134.4l1.2-2.5 M124.1,136.8l1.2-2.5
		 M124.1,138v-1.2 M122.9,139.3l1.2-1.2 M121.6,141.7l1.2-2.5 M121.6,142.9v-1.2 M120.4,144.2l1.2-1.2 M120.4,146.6v-2.5
		 M119.1,147.9l1.2-1.2 M117.9,150.3l1.2-2.5 M117.9,151.5v-1.2 M116.6,154l1.2-2.5 M116.6,155.2V154 M115.4,157.7l1.2-2.5
		 M114.1,158.9l1.2-1.2 M114.1,160.1v-1.2 M112.9,161.4l1.2-1.2 M111.6,162.6l1.2-1.2 M110.4,166.3l1.2-3.7 M110.4,167.5v-1.2
		 M109.1,168.7l1.2-1.2 M109.1,171.2v-2.5 M107.9,171.2h1.2 M106.7,172.4l1.2-1.2 M105.4,172.4h1.2 M104.2,172.4h1.2 M102.9,172.4
		h1.2 M101.7,171.2l1.2,1.2 M100.4,171.2h1.2 M99.2,171.2h1.2 M97.9,171.2h1.2 M96.7,171.2h1.2 M95.4,172.4l1.2-1.2 M94.2,172.4h1.2
		 M92.9,172.4h1.2 M91.7,172.4h1.2 M89.2,172.4h2.5 M89.2,174.9v-2.5 M89.2,173.7v1.2 M87.9,170l1.2,3.7 M86.7,168.7l1.2,1.2
		 M85.5,167.5l1.2,1.2 M84.2,168.7l1.2-1.2 M83,168.7h1.2 M81.7,167.5l1.2,1.2 M80.5,166.3l1.2,1.2 M79.2,166.3h1.2 M78,165.1
		l1.2,1.2 M76.7,165.1H78 M75.5,166.3l1.2-1.2 M75.5,158.9v7.4 M74.2,155.2l1.2,3.7 M73,156.5l1.2-1.2 M71.7,155.2l1.2,1.2
		 M70.5,156.5l1.2-1.2 M69.3,156.5h1.2 M68,154l1.2,2.5 M66.8,154H68 M65.5,154h1.2 M64.3,154h1.2 M63,152.8l1.2,1.2 M63,151.5v1.2
		 M61.8,150.3l1.2,1.2 M60.5,151.5l1.2-1.2 M59.3,152.8l1.2-1.2 M58,154l1.2-1.2 M56.8,156.5L58,154 M56.8,154v2.5 M55.5,154h1.2
		 M54.3,150.3l1.2,3.7 M53,147.9l1.2,2.5 M53,150.3v-2.5 M53,146.6v3.7 M51.8,144.2l1.2,2.5 M51.8,141.7v2.5 M50.6,139.3l1.2,2.5
		 M50.6,135.6v3.7 M49.3,123.3l1.2,12.3 M49.3,115.9v7.4 M48.1,114.7l1.2,1.2 M48.1,112.2v2.5 M46.8,109.8l1.2,2.5 M45.6,108.6
		l1.2,1.2 M44.3,106.1l1.2,2.5 M44.3,108.6v-2.5 M44.3,106.1v2.5 M43.1,103.7l1.2,2.5 M41.8,101.2l1.2,2.5 M40.6,95.1l1.2,6.1
		 M40.6,92.6v2.5 M39.3,82.8l1.2,9.8 M38.1,80.3l1.2,2.5 M38.1,76.6v3.7 M36.8,70.5l1.2,6.1 M35.6,68l1.2,2.5 M34.3,63.1l1.2,4.9
		 M34.3,61.9v1.2 M33.1,44.7l1.2,17.2 M33.1,43.5v1.2 M31.8,39.8l1.2,3.7 M31.8,37.3v2.5 M30.6,36.1l1.2,1.2 M29.4,34.9l1.2,1.2
		 M28.1,34.9h1.2 M28.1,37.3v-2.5 M26.9,37.3h1.2 M24.4,37.3h2.5 M23.1,36.1l1.2,1.2 M21.9,34.9l1.2,1.2 M20.6,34.9h1.2 M19.4,33.7
		l1.2,1.2 M19.4,36.1v-2.5 M19.4,37.3v-1.2 M18.1,42.3l1.2-4.9 M18.1,45.9v-3.7 M16.9,47.2l1.2-1.2 M15.6,48.4l1.2-1.2 M15.6,50.8
		v-2.5 M13.1,52.1l2.5-1.2 M11.9,53.3l1.2-1.2 M10.7,54.5l1.2-1.2"/>
	<path class="st16" d="M356,199.4h1.3 M353.5,199.4h2.5 M352.3,198.2l1.2,1.2 M351,198.2h1.2 M349.8,198.2h1.2 M348.5,198.2h1.2
		 M347.3,198.2h1.2 M346,198.2h1.2 M344.8,198.2h1.2 M343.5,198.2h1.2 M342.3,197l1.2,1.2 M341,195.8l1.2,1.2 M339.8,194.5l1.2,1.2
		 M338.5,194.5h1.2 M337.3,194.5h1.2 M336,193.3l1.2,1.2 M334.8,192.1l1.2,1.2 M333.6,190.8l1.2,1.2 M332.3,192.1l1.2-1.2
		 M331.1,192.1h1.2 M329.8,192.1h1.2 M328.6,192.1h1.2 M327.3,193.3l1.2-1.2 M326.1,192.1l1.2,1.2 M324.8,194.5l1.2-2.5
		 M323.6,194.5h1.2 M322.3,194.5h1.2 M321.1,194.5h1.2 M319.8,194.5h1.2 M318.6,194.5h1.2 M317.3,194.5h1.2 M316.1,194.5h1.2
		 M314.9,194.5h1.2 M313.6,194.5h1.2 M312.4,194.5h1.2 M311.1,194.5h1.2 M309.9,194.5h1.2 M308.6,194.5h1.2 M307.4,194.5h1.2
		 M304.9,194.5h2.5 M303.6,194.5h1.2 M302.4,194.5h1.2 M301.1,194.5h1.2 M299.9,194.5h1.2 M298.6,194.5h1.2 M297.4,193.3l1.2,1.2
		 M296.2,192.1l1.2,1.2 M296.2,190.8v1.2 M294.9,189.6l1.3,1.2 M293.7,188.4l1.2,1.2 M293.7,185.9v2.5 M292.4,183.5l1.2,2.5
		 M291.2,183.5h1.2 M289.9,182.2l1.2,1.2 M288.7,181l1.2,1.2 M287.4,179.8l1.2,1.2 M286.2,177.3l1.2,2.5 M286.2,176.1v1.2
		 M284.9,174.9l1.2,1.2 M283.7,173.7l1.2,1.2 M283.7,172.4v1.2 M282.4,170l1.2,2.5 M282.4,168.7v1.2 M281.2,166.3l1.2,2.5
		 M281.2,165.1v1.2 M279.9,163.8l1.2,1.2 M278.7,163.8h1.2 M277.5,161.4l1.2,2.5 M276.2,161.4h1.2 M275,162.6l1.2-1.2 M273.7,162.6
		h1.2 M272.5,161.4l1.2,1.2 M271.2,160.1l1.2,1.2 M270,161.4l1.2-1.2 M270,162.6v-1.2 M268.7,165.1l1.2-2.5 M267.5,165.1h1.2
		 M266.2,166.3l1.2-1.2 M265,168.7l1.2-2.5 M265,170v-1.2 M263.7,171.2l1.2-1.2 M262.5,173.7l1.2-2.5 M261.2,173.7h1.2 M260,174.9
		l1.2-1.2 M258.8,174.9h1.2 M257.5,174.9h1.2 M256.3,174.9h1.2 M255,173.7l1.2,1.2 M255,176.1v-2.5 M253.8,177.3l1.2-1.2
		 M252.5,178.6l1.2-1.2 M251.3,178.6h1.2 M250,177.3l1.3,1.2 M248.8,178.6l1.2-1.2 M247.5,181l1.2-2.5 M246.3,182.2l1.2-1.2
		 M245,182.2h1.2 M243.8,183.5l1.2-1.2 M242.5,183.5h1.2 M241.3,183.5h1.2 M240,183.5h1.2 M238.8,183.5h1.2 M237.6,183.5h1.2
		 M236.3,182.2l1.2,1.2 M235.1,182.2h1.2 M233.8,182.2h1.2 M232.6,182.2h1.2 M231.3,181l1.2,1.2 M230.1,181h1.2 M228.8,178.6
		l1.2,2.5 M227.6,178.6h1.2 M226.3,176.1l1.2,2.5 M226.3,174.9v1.2 M225.1,173.7l1.2,1.2 M225.1,172.4v1.2 M223.8,168.7l1.2,3.7
		 M222.6,168.7h1.2 M222.6,167.5v1.2 M221.3,165.1l1.2,2.5 M220.1,163.8l1.2,1.2 M218.9,161.4l1.2,2.5 M218.9,160.1v1.2
		 M217.6,157.7l1.2,2.5 M217.6,154v3.7 M216.4,152.8l1.2,1.2 M216.4,150.3v2.5 M216.4,149.1v1.2 M215.1,146.6l1.2,2.5 M215.1,140.5
		v6.1 M215.1,134.4v6.1 M213.9,130.7l1.2,3.7 M213.9,127v3.7 M213.9,124.5v2.5 M212.6,119.6l1.2,4.9 M212.6,113.5v6.1 M212.6,106.1
		v7.4 M211.4,102.4l1.2,3.7 M211.4,97.5v4.9 M211.4,91.4v6.1 M210.1,84l1.2,7.4 M210.1,80.3V84 M210.1,76.6v3.7 M208.9,70.5l1.2,6.1
		 M207.6,75.4l1.2-4.9 M207.6,77.9v-2.5 M206.4,79.1l1.2-1.2 M205.1,79.1h1.2 M203.9,79.1h1.2 M202.6,79.1h1.2 M201.4,79.1h1.2
		 M200.2,81.5l1.2-2.5 M198.9,81.5h1.2 M198.9,82.8v-1.2 M196.4,85.2l2.5-2.5 M196.4,86.5v-1.2 M196.4,87.7v-1.2 M195.2,90.1
		l1.2-2.5 M195.2,92.6v-2.5 M193.9,95.1l1.2-2.5 M192.7,92.6l1.2,2.5 M192.7,88.9v3.7 M191.4,87.7l1.2,1.2 M191.4,85.2v2.5
		 M191.4,84v1.2 M190.2,80.3l1.2,3.7 M190.2,82.8v-2.5 M188.9,85.2l1.2-2.5 M188.9,88.9v-3.7 M186.4,86.5l2.5,2.5 M186.4,85.2v1.2
		 M185.2,82.8l1.2,2.5 M185.2,85.2v-2.5 M183.9,85.2h1.2 M182.7,86.5l1.2-1.2 M182.7,91.4v-4.9 M181.5,96.3l1.2-4.9 M180.2,97.5
		l1.2-1.2 M179,98.7l1.2-1.2 M177.7,100l1.2-1.2 M176.5,101.2l1.2-1.2 M175.2,103.7l1.2-2.5 M174,104.9l1.2-1.2 M172.7,106.1
		l1.2-1.2 M171.5,107.3l1.2-1.2 M170.2,108.6l1.2-1.2 M169,109.8l1.2-1.2 M167.7,111l1.2-1.2 M166.5,112.2l1.2-1.2 M165.2,113.5
		l1.2-1.2 M164,114.7l1.2-1.2 M162.8,117.2l1.2-2.5 M162.8,118.4v-1.2 M161.5,120.8l1.2-2.5 M160.3,122.1l1.2-1.2 M159,123.3
		l1.2-1.2 M157.8,125.8l1.2-2.5 M157.8,127v-1.2 M156.5,128.2l1.2-1.2 M155.3,129.4l1.2-1.2 M154,130.7l1.2-1.2 M152.8,133.1
		l1.2-2.5 M151.5,130.7l1.2,2.5 M150.3,134.4l1.2-3.7 M150.3,135.6v-1.2 M149,136.8l1.2-1.2 M147.8,138l1.2-1.2 M146.5,139.3
		l1.2-1.2 M145.3,139.3h1.2 M144.1,140.5l1.2-1.2 M142.8,142.9l1.2-2.5 M142.8,145.4v-2.5 M141.6,146.6l1.2-1.2 M140.3,146.6h1.2
		 M139.1,147.9l1.2-1.2 M137.8,147.9h1.2 M136.6,147.9h1.2 M135.3,147.9h1.2 M134.1,147.9h1.2 M132.8,147.9h1.2 M131.6,147.9h1.2
		 M130.3,147.9h1.2 M129.1,147.9h1.2 M127.8,147.9h1.2 M126.6,147.9h1.2 M125.4,147.9h1.2 M124.1,147.9h1.2 M122.9,146.6l1.2,1.2
		 M121.6,146.6h1.2 M120.4,147.9l1.2-1.2 M119.1,147.9h1.2 M117.9,147.9h1.2 M116.6,147.9h1.2 M115.4,147.9h1.2 M114.1,147.9h1.2
		 M112.9,147.9h1.2 M110.4,149.1l2.5-1.2 M109.1,149.1h1.2 M107.9,150.3l1.2-1.2 M106.7,150.3h1.2 M106.7,151.5v-1.2 M105.4,149.1
		l1.2,2.5 M104.2,149.1h1.2 M102.9,149.1h1.2 M101.7,147.9l1.2,1.2 M100.4,147.9h1.2 M99.2,147.9h1.2 M97.9,146.6l1.2,1.2
		 M96.7,147.9l1.2-1.2 M95.4,147.9h1.2 M94.2,147.9h1.2 M92.9,147.9h1.2 M91.7,147.9h1.2 M89.2,147.9h2.5 M87.9,147.9h1.2
		 M87.9,144.2v3.7 M87.9,142.9v1.2 M86.7,141.7l1.2,1.2 M86.7,139.3v2.5 M85.5,138l1.2,1.2 M84.2,138h1.2 M83,138h1.2 M81.7,134.4
		L83,138 M81.7,133.1v1.2 M80.5,130.7l1.2,2.5 M79.2,130.7h1.2 M78,128.2l1.2,2.5 M76.7,129.4l1.2-1.2 M76.7,125.8v3.7 M75.5,123.3
		l1.2,2.5 M75.5,120.8v2.5 M74.2,119.6l1.2,1.2 M73,119.6h1.2 M71.7,119.6H73 M71.7,118.4v1.2 M70.5,118.4h1.2 M68,117.2l2.5,1.2
		 M66.8,115.9l1.2,1.2 M65.5,115.9h1.2 M64.3,113.5l1.2,2.5 M64.3,115.9v-2.5 M63,117.2l1.2-1.2 M61.8,115.9l1.2,1.2 M60.5,117.2
		l1.2-1.2 M59.3,118.4l1.2-1.2 M58,117.2l1.2,1.2 M56.8,118.4l1.2-1.2 M55.5,118.4h1.2 M54.3,118.4h1.2 M53,118.4h1.2 M53,114.7v3.7
		 M51.8,112.2l1.2,2.5 M51.8,111v1.2 M50.6,113.5l1.2-2.5 M50.6,109.8v3.7 M49.3,98.7l1.2,11.1 M49.3,96.3v2.5 M48.1,95.1l1.2,1.2
		 M48.1,93.8V95 M45.6,91.4l2.5,2.5 M44.3,91.4h1.2 M43.1,91.4h1.2 M43.1,90.1v1.2 M41.8,88.9l1.2,1.2 M41.8,82.8v6.1 M40.6,84
		l1.2-1.2 M39.3,88.9l1.2-4.9 M38.1,84l1.2,4.9 M36.8,82.8L38,84 M35.6,85.2l1.2-2.5 M34.3,82.8l1.2,2.5 M34.3,85.2v-2.5 M33.1,81.5
		l1.2,3.7 M31.8,79.1l1.2,2.5 M30.6,76.6l1.2,2.5 M29.4,75.4l1.2,1.2 M29.4,77.9v-2.5 M28.1,77.9h1.2 M28.1,82.8v-4.9 M26.9,82.8
		h1.2 M25.6,80.3l1.2,2.5 M25.6,82.8v-2.5 M24.4,85.2l1.2-2.5 M23.1,87.7l1.2-2.5 M23.1,88.9v-1.2 M21.9,90.1l1.2-1.2 M21.9,91.4
		v-1.2 M20.6,88.9l1.2,2.5 M20.6,91.4v-2.5 M20.6,92.6v-1.2 M19.4,91.4l1.2,1.2 M19.4,95.1v-3.7 M18.1,100l1.2-4.9 M18.1,104.9V100
		 M16.9,106.1l1.2-1.2 M15.6,108.6l1.2-2.5 M14.4,112.2l1.2-3.7 M14.4,113.5v-1.2 M13.1,114.7l1.2-1.2 M11.9,119.6l1.2-4.9
		 M10.7,118.4l1.2,1.2"/>
	<path class="st17" d="M356,184.7h1.3 M353.5,185.9l2.5-1.2 M352.3,185.9h1.2 M351,185.9h1.2 M349.8,185.9h1.2 M348.5,185.9h1.2
		 M347.3,185.9h1.2 M346,185.9h1.2 M344.8,185.9h1.2 M343.5,185.9h1.2 M342.3,185.9h1.2 M341,185.9h1.2 M339.8,185.9h1.2
		 M338.5,185.9h1.2 M337.3,185.9h1.2 M336,187.2l1.2-1.2 M334.8,187.2h1.2 M333.6,187.2h1.2 M332.3,187.2h1.2 M331.1,187.2h1.2
		 M329.8,187.2h1.2 M328.6,187.2h1.2 M326.1,187.2h2.5 M324.8,187.2h1.2 M323.6,187.2h1.2 M322.3,187.2h1.2 M321.1,187.2h1.2
		 M319.8,187.2h1.2 M318.6,187.2h1.2 M317.3,187.2h1.2 M316.1,187.2h1.2 M314.9,187.2h1.2 M313.6,187.2h1.2 M312.4,187.2h1.2
		 M311.1,187.2h1.2 M309.9,187.2h1.2 M308.6,187.2h1.2 M307.4,187.2h1.2 M306.1,187.2h1.2 M304.9,187.2h1.2 M303.6,187.2h1.2
		 M302.4,187.2h1.2 M301.1,187.2h1.2 M299.9,185.9l1.2,1.2 M298.6,184.7l1.2,1.2 M297.4,183.5l1.2,1.2 M296.2,182.2l1.2,1.2
		 M294.9,181l1.3,1.2 M293.7,179.8l1.2,1.2 M292.4,177.3l1.2,2.5 M291.2,176.1l1.2,1.2 M289.9,174.9l1.2,1.2 M288.7,174.9h1.2
		 M287.4,174.9h1.2 M286.2,174.9h1.2 M284.9,173.7l1.2,1.2 M283.7,173.7h1.2 M282.4,173.7h1.2 M281.2,173.7h1.2 M279.9,174.9
		l1.2-1.2 M278.7,174.9h1.2 M277.5,176.1l1.2-1.2 M276.2,176.1h1.2 M275,177.3l1.2-1.2 M273.7,178.6l1.2-1.2 M272.5,179.8l1.2-1.2
		 M271.2,179.8h1.2 M270,179.8h1.2 M268.7,179.8h1.2 M267.5,179.8h1.2 M266.2,179.8h1.2 M265,179.8h1.2 M263.7,179.8h1.2
		 M261.2,179.8h2.5 M260,181l1.2-1.2 M258.8,181h1.2 M257.5,181h1.2 M256.3,182.2l1.2-1.2 M255,182.2h1.2 M253.8,182.2h1.2
		 M252.5,182.2h1.2 M251.3,182.2h1.2 M250,181l1.3,1.2 M248.8,182.2l1.2-1.2 M247.5,182.2h1.2 M246.3,182.2h1.2 M245,182.2h1.2
		 M243.8,183.5l1.2-1.2 M242.5,183.5h1.2 M241.3,183.5h1.2 M240,183.5h1.2 M238.8,184.7l1.2-1.2 M237.6,184.7h1.2 M236.3,184.7h1.2
		 M235.1,184.7h1.2 M233.8,184.7h1.2 M232.6,185.9l1.2-1.2 M231.3,185.9h1.2 M230.1,184.7l1.2,1.2 M228.8,183.5l1.2,1.2 M227.6,181
		l1.2,2.5 M227.6,178.6v2.5 M226.3,176.1l1.2,2.5 M226.3,173.7v2.5 M225.1,172.4l1.2,1.2 M225.1,170v2.5 M223.8,168.7l1.2,1.2
		 M222.6,168.7h1.2 M222.6,166.3v2.5 M221.3,165.1l1.2,1.2 M221.3,162.6v2.5 M220.1,160.1l1.2,2.5 M218.9,158.9l1.2,1.2
		 M218.9,157.7v1.2 M218.9,154v3.7 M217.6,152.8l1.2,1.2 M217.6,150.3v2.5 M216.4,147.9l1.2,2.5 M215.1,146.6l1.2,1.2 M215.1,144.2
		v2.5 M215.1,141.7v2.5 M213.9,134.4l1.2,7.4 M213.9,129.4v4.9 M213.9,127v2.5 M212.6,122.1l1.2,4.9 M212.6,117.2v4.9 M212.6,104.9
		v12.3 M211.4,101.2l1.2,3.7 M211.4,98.7v2.5 M211.4,90.1v8.6 M210.1,58.2l1.2,31.9 M210.1,54.5v3.7 M210.1,49.6v4.9 M207.6,47.2
		l2.5,2.5 M207.6,54.5v-7.4 M207.6,60.7v-6.1 M206.4,59.4l1.2,1.2 M205.1,59.4h1.2 M203.9,58.2l1.2,1.2 M202.6,57l1.2,1.2
		 M201.4,54.5l1.2,2.5 M200.2,57l1.2-2.5 M198.9,58.2l1.2-1.2 M197.7,55.8l1.2,2.5 M196.4,54.5l1.2,1.2 M196.4,55.8v-1.2
		 M195.2,60.7l1.2-4.9 M195.2,61.9v-1.2 M193.9,63.1l1.2-1.2 M192.7,64.4l1.2-1.2 M192.7,61.9v2.5 M191.4,59.4l1.2,2.5 M191.4,53.3
		v6.1 M191.4,52.1v1.2 M190.2,42.3l1.2,9.8 M190.2,39.8v2.5 M188.9,41l1.2-1.2 M188.9,44.7V41 M187.7,47.2l1.2-2.5 M186.4,48.4
		l1.2-1.2 M185.2,47.2l1.2,1.2 M185.2,44.7v2.5 M185.2,33.7v11.1 M183.9,32.4l1.2,1.2 M182.7,37.3l1.2-4.9 M182.7,47.2v-9.8
		 M181.5,53.3l1.2-6.1 M180.2,53.3h1.2 M180.2,55.8v-2.5 M179,58.2l1.2-2.5 M177.7,59.4l1.2-1.2 M176.5,60.7l1.2-1.2 M175.2,63.1
		l1.2-2.5 M174,64.4l1.2-1.2 M172.7,65.6l1.2-1.2 M171.5,64.4l1.2,1.2 M170.2,63.1l1.2,1.2 M170.2,65.6v-2.5 M169,70.5l1.2-4.9
		 M167.7,71.7l1.2-1.2 M166.5,73l1.2-1.2 M165.2,74.2l1.2-1.2 M164,75.4l1.2-1.2 M162.8,77.9l1.2-2.5 M161.5,79.1l1.2-1.2
		 M160.3,79.1h1.2 M159,84l1.2-4.9 M157.8,85.2L159,84 M156.5,84l1.2,1.2 M155.3,85.2l1.2-1.2 M154,85.2h1.2 M152.8,87.7l1.2-2.5
		 M151.5,87.7h1.2 M150.3,88.9l1.2-1.2 M149,88.9h1.2 M147.8,87.7l1.2,1.2 M146.5,87.7h1.2 M145.3,86.5l1.2,1.2 M144.1,87.7l1.2-1.2
		 M142.8,87.7h1.2 M141.6,88.9l1.2-1.2 M140.3,87.7l1.2,1.2 M139.1,87.7h1.2 M137.8,87.7h1.2 M136.6,87.7h1.2 M135.3,85.2l1.2,2.5
		 M135.3,82.8v2.5 M132.8,81.5l2.5,1.2 M131.6,81.5h1.2 M131.6,80.3v1.2 M130.3,79.1l1.2,1.2 M129.1,79.1h1.2 M127.8,79.1h1.2
		 M126.6,81.5l1.2-2.5 M125.4,81.5h1.2 M124.1,81.5h1.2 M122.9,81.5h1.2 M121.6,81.5h1.2 M120.4,80.3l1.2,1.2 M119.1,80.3h1.2
		 M117.9,79.1l1.2,1.2 M116.6,79.1h1.2 M115.4,79.1h1.2 M114.1,80.3l1.2-1.2 M114.1,82.8v-2.5 M112.9,81.5l1.2,1.2 M111.6,82.8
		l1.2-1.2 M110.4,85.2l1.2-2.5 M110.4,86.5v-1.2 M110.4,87.7v-1.2 M109.1,92.6l1.2-4.9 M107.9,93.8l1.2-1.2 M106.7,93.8h1.2
		 M105.4,96.3l1.2-2.5 M104.2,98.7l1.2-2.5 M102.9,98.7h1.2 M102.9,101.2v-2.5 M101.7,101.2h1.2 M100.4,102.4l1.2-1.2 M99.2,102.4
		h1.2 M97.9,103.7l1.2-1.2 M96.7,104.9l1.2-1.2 M95.4,109.8l1.2-4.9 M94.2,109.8h1.2 M94.2,111v-1.2 M92.9,113.5l1.2-2.5
		 M91.7,115.9l1.2-2.5 M90.4,115.9h1.2 M89.2,112.2l1.2,3.7 M87.9,111l1.2,1.2 M86.7,111h1.2 M86.7,112.2V111 M85.5,111l1.2,1.2
		 M84.2,111h1.2 M83,109.8l1.2,1.2 M81.7,108.6l1.2,1.2 M80.5,103.7l1.2,4.9 M78,102.4l2.5,1.2 M76.7,102.4H78 M75.5,102.4h1.2
		 M75.5,103.7v-1.2 M74.2,102.4l1.2,1.2 M73,103.7l1.2-1.2 M71.7,102.4l1.2,1.2 M70.5,102.4h1.2 M69.3,102.4h1.2 M68,101.2l1.2,1.2
		 M68,98.7v2.5 M66.8,97.5l1.2,1.2 M65.5,98.7l1.2-1.2 M64.3,98.7h1.2 M63,98.7h1.2 M61.8,97.5l1.2,1.2 M60.5,100l1.2-2.5
		 M59.3,101.2l1.2-1.2 M58,101.2h1.2 M56.8,101.2H58 M55.5,101.2h1.2 M54.3,102.4l1.2-1.2 M54.3,103.7v-1.2 M53,102.4l1.2,1.2
		 M53,104.9v-2.5 M53,97.5v7.4 M51.8,95.1l1.2,2.5 M50.6,91.4l1.2,3.7 M50.6,90.1v1.2 M49.3,82.8l1.2,7.4 M49.3,80.3v2.5 M48.1,79.1
		l1.2,1.2 M46.8,76.6l1.2,2.5 M45.6,71.7l1.2,4.9 M44.3,71.7h1.2 M43.1,73l1.2-1.2 M41.8,73H43 M40.6,69.3l1.2,3.7 M39.3,68l1.2,1.2
		 M38.1,66.8l1.2,1.2 M38.1,61.9v4.9 M36.8,60.7l1.2,1.2 M36.8,59.4v1.2 M35.6,58.2l1.2,1.2 M34.3,57l1.2,1.2 M33.1,57h1.2
		 M31.8,54.5L33,57 M30.6,52.1l1.2,2.5 M30.6,50.8V52 M29.4,49.6l1.2,1.2 M28.1,49.6h1.2 M26.9,48.4l1.2,1.2 M24.4,49.6l2.5-1.2
		 M23.1,49.6h1.2 M21.9,48.4l1.2,1.2 M20.6,48.4h1.2 M19.4,48.4h1.2 M19.4,45.9v2.5 M18.1,44.7l1.2,1.2 M16.9,47.2l1.2-2.5
		 M16.9,48.4v-1.2 M15.6,48.4h1.2 M13.1,48.4h2.5 M13.1,49.6v-1.2 M11.9,50.8l1.2-1.2 M11.9,52.1v-1.2 M11.9,50.8V52 M10.7,52.1
		l1.2-1.2"/>
</g>
<g>
	<g>
		<defs>
			<rect id="SVGID_7_" width="464.4" height="213.5"/>
		</defs>
		<clipPath id="SVGID_8_">
			<use xlink:href="#SVGID_7_"  style="overflow:visible;"/>
		</clipPath>
		<path class="st18" d="M356.8,199.4c0,0,16.3,0.6,28-1.2s23.1,1.2,26.9-1.2c3.7-2.5,26.5-6.9,26.5-6.9l2.2-6c0,0,2.9,3.5,7.5,3.7
			c8.5,0.4,13.5-2.2,14.2-2.5"/>
	</g>
	<g>
		<defs>
			<rect id="SVGID_9_" width="464.4" height="213.5"/>
		</defs>
		<clipPath id="SVGID_10_">
			<use xlink:href="#SVGID_9_"  style="overflow:visible;"/>
		</clipPath>
		<path class="st19" d="M357.3,192.6c0,0,11.3-7.1,14.9-11s24.3-19.6,33.7-23.3c9.4-3.7,13.3-2.3,16.2-3.1
			c2.9-0.8,18.7-8.6,18.7-8.6l2.3,2.6c0,0,14.5-7,15.2-6.3s3.3,2.5,3.3,2.5"/>
	</g>
	<g>
		<defs>
			<rect id="SVGID_11_" width="464.4" height="213.5"/>
		</defs>
		<clipPath id="SVGID_12_">
			<use xlink:href="#SVGID_11_"  style="overflow:visible;"/>
		</clipPath>
		<path class="st20" d="M357.3,184.7c0,0,27.9-8.1,34.9-9.8s33.7-12.3,38.7-12.3s10-3.1,10-3.1s1.2,3.1,7.5,1.8
			c6.2-1.2,13.3-1.2,13.3-1.2"/>
	</g>
</g>
<g>
	<text transform="matrix(1 0 0 1 2.2183 210.5172)" class="st4 st5 st6">20</text>
	<text transform="matrix(1 0 0 1 8.8183 210.5172)" class="st4 st5 st6">0</text>
	<text transform="matrix(1 0 0 1 12.1183 210.5172)" class="st4 st5 st6">0</text>
	<text transform="matrix(1 0 0 1 15.5183 210.5172)" class="st4 st5 st6"> </text>
	<text transform="matrix(1 0 0 1 25.5073 210.5172)" class="st4 st5 st6">20</text>
	<text transform="matrix(1 0 0 1 32.1073 210.5172)" class="st4 st5 st6">0</text>
	<text transform="matrix(1 0 0 1 35.4073 210.5172)" class="st4 st5 st6">1</text>
	<text transform="matrix(1 0 0 1 38.8073 210.5172)" class="st4 st5 st6"> </text>
	<text transform="matrix(1 0 0 1 47.8511 210.5172)" class="st4 st5 st6">2002</text>
	<text transform="matrix(1 0 0 1 61.1511 210.5172)" class="st4 st5 st6"> </text>
	<text transform="matrix(1 0 0 1 70.4683 210.5172)" class="st4 st5 st6">2003</text>
	<text transform="matrix(1 0 0 1 83.7683 210.5172)" class="st4 st5 st6"> </text>
	<text transform="matrix(1 0 0 1 92.8472 210.5172)" class="st4 st5 st6">2004</text>
	<text transform="matrix(1 0 0 1 106.1472 210.5172)" class="st4 st5 st6"> </text>
	<text transform="matrix(1 0 0 1 115.7935 210.5172)" class="st4 st5 st6">2005</text>
	<text transform="matrix(1 0 0 1 129.0935 210.5172)" class="st4 st5 st6"> </text>
	<text transform="matrix(1 0 0 1 138.2144 210.5172)" class="st4 st5 st6">2006</text>
	<text transform="matrix(1 0 0 1 151.5144 210.5172)" class="st4 st5 st6"> </text>
	<text transform="matrix(1 0 0 1 161.1113 210.5172)" class="st4 st5 st6">2007</text>
	<text transform="matrix(1 0 0 1 174.4113 210.5172)" class="st4 st5 st6"> </text>
	<text transform="matrix(1 0 0 1 183.5464 210.5172)" class="st4 st5 st6">2</text>
	<text transform="matrix(1 0 0 1 186.8464 210.5172)" class="st4 st5 st6">0</text>
	<text transform="matrix(1 0 0 1 190.1464 210.5172)" class="st4 st5 st6">08</text>
	<text transform="matrix(1 0 0 1 196.8464 210.5172)" class="st4 st5 st6"> </text>
	<text transform="matrix(1 0 0 1 206.1772 210.5172)" class="st4 st5 st6">2</text>
	<text transform="matrix(1 0 0 1 209.4772 210.5172)" class="st4 st5 st6">0</text>
	<text transform="matrix(1 0 0 1 212.7772 210.5172)" class="st4 st5 st6">09</text>
	<text transform="matrix(1 0 0 1 219.4772 210.5172)" class="st4 st5 st6"> </text>
	<text transform="matrix(1 0 0 1 229.3613 210.5172)" class="st4 st5 st6">2</text>
	<text transform="matrix(1 0 0 1 232.6613 210.5172)" class="st4 st5 st6">0</text>
	<text transform="matrix(1 0 0 1 235.9613 210.5172)" class="st4 st5 st6">10</text>
	<text transform="matrix(1 0 0 1 242.6613 210.5172)" class="st4 st5 st6"> </text>
	<text transform="matrix(1 0 0 1 252.6504 210.5172)" class="st4 st5 st6">2</text>
	<text transform="matrix(1 0 0 1 255.9504 210.5172)" class="st4 st5 st6">0</text>
	<text transform="matrix(1 0 0 1 259.2504 210.5172)" class="st4 st5 st6">11</text>
	<text transform="matrix(1 0 0 1 265.9504 210.5172)" class="st4 st5 st6"> </text>
	<text transform="matrix(1 0 0 1 274.9941 210.5172)" class="st4 st5 st6">2</text>
	<text transform="matrix(1 0 0 1 278.2941 210.5172)" class="st4 st5 st6">0</text>
	<text transform="matrix(1 0 0 1 281.5941 210.5172)" class="st4 st5 st6">12</text>
	<text transform="matrix(1 0 0 1 288.2941 210.5172)" class="st4 st5 st6"> </text>
	<text transform="matrix(1 0 0 1 297.6113 210.5172)" class="st4 st5 st6">2</text>
	<text transform="matrix(1 0 0 1 300.9113 210.5172)" class="st4 st5 st6">0</text>
	<text transform="matrix(1 0 0 1 304.2113 210.5172)" class="st4 st5 st6">13</text>
	<text transform="matrix(1 0 0 1 310.9113 210.5172)" class="st4 st5 st6"> </text>
	<text transform="matrix(1 0 0 1 319.9902 210.5172)" class="st4 st5 st6">2</text>
	<text transform="matrix(1 0 0 1 323.2902 210.5172)" class="st4 st5 st6">0</text>
	<text transform="matrix(1 0 0 1 326.5902 210.5172)" class="st4 st5 st6">14</text>
	<text transform="matrix(1 0 0 1 333.2902 210.5172)" class="st4 st5 st6"> </text>
	<text transform="matrix(1 0 0 1 343.5947 210.5172)" class="st4 st5 st6">2</text>
	<text transform="matrix(1 0 0 1 346.8947 210.5172)" class="st4 st5 st6">0</text>
	<text transform="matrix(1 0 0 1 350.1947 210.5172)" class="st4 st5 st6">1</text>
	<text transform="matrix(1 0 0 1 353.4947 210.5172)" class="st4 st5 st6">5</text>
	<text transform="matrix(1 0 0 1 367.7793 210.5172)" class="st4 st5 st6">1yr</text>
	<text transform="matrix(1 0 0 1 376.1793 210.5172)" class="st4 st5 st6">.</text>
	<text transform="matrix(1 0 0 1 390.123 210.5172)" class="st4 st5 st6">2yr</text>
	<text transform="matrix(1 0 0 1 398.523 210.5172)" class="st4 st5 st6">.</text>
	<text transform="matrix(1 0 0 1 412.7402 210.5172)" class="st4 st5 st6">3</text>
	<text transform="matrix(1 0 0 1 416.0402 210.5172)" class="st4 st5 st6">yr</text>
	<text transform="matrix(1 0 0 1 421.1402 210.5172)" class="st4 st5 st6">.</text>
	<text transform="matrix(1 0 0 1 435.1191 210.5172)" class="st4 st5 st6">4yr</text>
	<text transform="matrix(1 0 0 1 443.5191 210.5172)" class="st4 st5 st6">.</text>
</g>
<g>
	<g>
		<defs>
			<rect id="SVGID_13_" width="464.4" height="213.5"/>
		</defs>
		<clipPath id="SVGID_14_">
			<use xlink:href="#SVGID_13_"  style="overflow:visible;"/>
		</clipPath>
		<g class="st21">
			<text transform="matrix(1 0 0 1 458.0645 210.5172)" class="st4 st5 st6">5yr</text>
			<text transform="matrix(1 0 0 1 466.4645 210.5172)" class="st4 st5 st6">.</text>
		</g>
	</g>
</g>
<g>
	<text transform="matrix(1 0 0 1 0 226.0011)" class="st4 st5 st6">S</text>
	<text transform="matrix(1 0 0 1 3.4 226.0011)" class="st4 st5 st6">o</text>
	<text transform="matrix(1 0 0 1 7.2 226.0011)" class="st4 st5 st6">u</text>
	<text transform="matrix(1 0 0 1 11 226.0011)" class="st4 st5 st6">r</text>
	<text transform="matrix(1 0 0 1 13.2 226.0011)" class="st4 st5 st6">c</text>
	<text transform="matrix(1 0 0 1 16.2 226.0011)" class="st4 st5 st6">e</text>
	<text transform="matrix(1 0 0 1 19.6 226.0011)" class="st4 st5 st6">:</text>
	<text transform="matrix(1 0 0 1 20.9 226.0011)" class="st4 st5 st6"> </text>
	<text transform="matrix(1 0 0 1 22.2 226.0011)" class="st4 st5 st6">B</text>
	<text transform="matrix(1 0 0 1 26 226.0011)" class="st4 st5 st6">l</text>
	<text transform="matrix(1 0 0 1 27.5 226.0011)" class="st4 st5 st6">o</text>
	<text transform="matrix(1 0 0 1 31.4 226.0011)" class="st4 st5 st6">o</text>
	<text transform="matrix(1 0 0 1 35.2 226.0011)" class="st4 st5 st6">m</text>
	<text transform="matrix(1 0 0 1 40.9 226.0011)" class="st4 st5 st6">b</text>
	<text transform="matrix(1 0 0 1 44.9 226.0011)" class="st4 st5 st6">e</text>
	<text transform="matrix(1 0 0 1 48.3 226.0011)" class="st4 st5 st6">r</text>
	<text transform="matrix(1 0 0 1 50.6 226.0011)" class="st4 st5 st6">g</text>
	<text transform="matrix(1 0 0 1 54.5 226.0011)" class="st4 st5 st6">, </text>
	<text transform="matrix(1 0 0 1 57.1 226.0011)" class="st4 st5 st6">M</text>
	<text transform="matrix(1 0 0 1 62.6 226.0011)" class="st4 st5 st6">a</text>
	<text transform="matrix(1 0 0 1 66 226.0011)" class="st4 st5 st6">r</text>
	<text transform="matrix(1 0 0 1 68.2 226.0011)" class="st4 st5 st6">c</text>
	<text transform="matrix(1 0 0 1 71.2 226.0011)" class="st4 st5 st6">h</text>
	<text transform="matrix(1 0 0 1 74.9 226.0011)" class="st4 st5 st6"> </text>
	<text transform="matrix(1 0 0 1 76.2 226.0011)" class="st4 st5 st6">2</text>
	<text transform="matrix(1 0 0 1 79.8 226.0011)" class="st4 st5 st6">0</text>
	<text transform="matrix(1 0 0 1 83.2 226.0011)" class="st4 st5 st6">1</text>
	<text transform="matrix(1 0 0 1 86.8 226.0011)" class="st4 st5 st6">5</text>
	<text transform="matrix(1 0 0 1 90.4 226.0011)" class="st4 st5 st6"> </text>
	<text transform="matrix(1 0 0 1 91.5 226.0011)" class="st4 st5 st6"> </text>
	<text transform="matrix(1 0 0 1 0 234.0011)" class="st4 st5 st6">P</text>
	<text transform="matrix(1 0 0 1 3.7 234.0011)" class="st4 st5 st6">a</text>
	<text transform="matrix(1 0 0 1 7.1 234.0011)" class="st4 st5 st6">s</text>
	<text transform="matrix(1 0 0 1 9.9 234.0011)" class="st4 st5 st6">t </text>
	<text transform="matrix(1 0 0 1 13.4 234.0011)" class="st4 st5 st6">p</text>
	<text transform="matrix(1 0 0 1 17.3 234.0011)" class="st4 st5 st6">e</text>
	<text transform="matrix(1 0 0 1 20.8 234.0011)" class="st4 st5 st6">r</text>
	<text transform="matrix(1 0 0 1 23.2 234.0011)" class="st4 st5 st6">f</text>
	<text transform="matrix(1 0 0 1 25.1 234.0011)" class="st4 st5 st6">o</text>
	<text transform="matrix(1 0 0 1 28.9 234.0011)" class="st4 st5 st6">r</text>
	<text transform="matrix(1 0 0 1 31.2 234.0011)" class="st4 st5 st6">m</text>
	<text transform="matrix(1 0 0 1 36.9 234.0011)" class="st4 st5 st6">a</text>
	<text transform="matrix(1 0 0 1 40.2 234.0011)" class="st4 st5 st6">n</text>
	<text transform="matrix(1 0 0 1 44.1 234.0011)" class="st4 st5 st6">c</text>
	<text transform="matrix(1 0 0 1 47.1 234.0011)" class="st4 st5 st6">e </text>
	<text transform="matrix(1 0 0 1 51.7 234.0011)" class="st4 st5 st6">i</text>
	<text transform="matrix(1 0 0 1 53.3 234.0011)" class="st4 st5 st6">s </text>
	<text transform="matrix(1 0 0 1 57.2 234.0011)" class="st4 st5 st6">n</text>
	<text transform="matrix(1 0 0 1 61 234.0011)" class="st4 st5 st6">e</text>
	<text transform="matrix(1 0 0 1 64.4 234.0011)" class="st4 st5 st6">v</text>
	<text transform="matrix(1 0 0 1 67.7 234.0011)" class="st4 st5 st6">e</text>
	<text transform="matrix(1 0 0 1 71.1 234.0011)" class="st4 st5 st6">r a </text>
	<text transform="matrix(1 0 0 1 79.1 234.0011)" class="st4 st5 st6">g</text>
	<text transform="matrix(1 0 0 1 83 234.0011)" class="st4 st5 st6">u</text>
	<text transform="matrix(1 0 0 1 86.7 234.0011)" class="st4 st5 st6">a</text>
	<text transform="matrix(1 0 0 1 90.1 234.0011)" class="st4 st5 st6">r</text>
	<text transform="matrix(1 0 0 1 92.3 234.0011)" class="st4 st5 st6">a</text>
	<text transform="matrix(1 0 0 1 95.6 234.0011)" class="st4 st5 st6">n</text>
	<text transform="matrix(1 0 0 1 99.4 234.0011)" class="st4 st5 st6">t</text>
	<text transform="matrix(1 0 0 1 101.6 234.0011)" class="st4 st5 st6">e</text>
	<text transform="matrix(1 0 0 1 105.1 234.0011)" class="st4 st5 st6">e </text>
	<text transform="matrix(1 0 0 1 109.8 234.0011)" class="st4 st5 st6">o</text>
	<text transform="matrix(1 0 0 1 113.5 234.0011)" class="st4 st5 st6">f </text>
	<text transform="matrix(1 0 0 1 116.7 234.0011)" class="st4 st5 st6">f</text>
	<text transform="matrix(1 0 0 1 118.7 234.0011)" class="st4 st5 st6">u</text>
	<text transform="matrix(1 0 0 1 122.5 234.0011)" class="st4 st5 st6">t</text>
	<text transform="matrix(1 0 0 1 124.8 234.0011)" class="st4 st5 st6">u</text>
	<text transform="matrix(1 0 0 1 128.5 234.0011)" class="st4 st5 st6">r</text>
	<text transform="matrix(1 0 0 1 130.7 234.0011)" class="st4 st5 st6">e </text>
	<text transform="matrix(1 0 0 1 135.4 234.0011)" class="st4 st5 st6">r</text>
	<text transform="matrix(1 0 0 1 137.6 234.0011)" class="st4 st5 st6">e</text>
	<text transform="matrix(1 0 0 1 141 234.0011)" class="st4 st5 st6">s</text>
	<text transform="matrix(1 0 0 1 143.7 234.0011)" class="st4 st5 st6">u</text>
	<text transform="matrix(1 0 0 1 147.5 234.0011)" class="st4 st5 st6">l</text>
	<text transform="matrix(1 0 0 1 149 234.0011)" class="st4 st5 st6">t</text>
	<text transform="matrix(1 0 0 1 151.4 234.0011)" class="st4 st5 st6">s</text>
	<text transform="matrix(1 0 0 1 154.2 234.0011)" class="st4 st5 st6">.</text>
</g>
</svg>
