<?xml version="1.0" encoding="utf-8"?>
<!-- Generator: Adobe Illustrator 19.2.1, SVG Export Plug-In . SVG Version: 6.00 Build 0)  -->
<svg version="1.1" id="Layer_1" xmlns="http://www.w3.org/2000/svg" xmlns:xlink="http://www.w3.org/1999/xlink" x="0px" y="0px"
	 viewBox="0 0 398.4 170.1" style="enable-background:new 0 0 398.4 170.1;" xml:space="preserve">
<style type="text/css">
	.st0{fill:#E6E7E8;}
	.st1{fill:#54301A;}
	.st2{font-family:'Amplitude-Regular';}
	.st3{font-size:12px;}
	.st4{font-family:'Amplitude-Medium';}
	.st5{fill:#4D4D4F;}
	.st6{font-family:'Amplitude-Light';}
	.st7{font-size:8px;}
	.st8{fill:#C7C8CA;}
	.st9{fill:none;stroke:#FFFFFF;stroke-miterlimit:10;}
	.st10{fill:none;stroke:#FFFFFF;stroke-width:2;stroke-miterlimit:10;}
	.st11{font-size:9px;}
	.st12{fill:#FFFFFF;}
	.st13{font-size:10px;}
	.st14{letter-spacing:57;}
	.st15{font-size:11px;}
	.st16{letter-spacing:-1;}
	.st17{fill:none;stroke:#FFFFFF;}
</style>
<g>
	<rect x="184" y="0.4" class="st0" width="139.1" height="163.8"/>
	<text transform="matrix(1 0 0 1 3.623962e-04 10.0439)"><tspan x="0" y="0" class="st1 st2 st3">E</tspan><tspan x="5.9" y="0" class="st1 st2 st3">x</tspan><tspan x="11.4" y="0" class="st1 st2 st3">ample: </tspan></text>
	<text transform="matrix(1 0 0 1 47.8905 10.0439)"><tspan x="0" y="0" class="st1 st4 st3">Usi</tspan><tspan x="15.3" y="0" class="st1 st4 st3">n</tspan><tspan x="21.9" y="0" class="st1 st4 st3">g</tspan><tspan x="28.6" y="0" class="st1 st4 st3"> </tspan><tspan x="31.4" y="0" class="st1 st4 st3">a</tspan><tspan x="37.2" y="0" class="st1 st4 st3"> </tspan><tspan x="40" y="0" class="st1 st4 st3">line</tspan><tspan x="58.3" y="0" class="st1 st4 st3"> </tspan><tspan x="61.1" y="0" class="st1 st4 st3">of</tspan><tspan x="71.2" y="0" class="st1 st4 st3"> </tspan><tspan x="74" y="0" class="st1 st4 st3">c</tspan><tspan x="79.4" y="0" class="st1 st4 st3">r</tspan><tspan x="83.3" y="0" class="st1 st4 st3">edit </tspan></text>
	<text transform="matrix(1 0 0 1 154.8212 10.0439)" class="st1 st4 st3"> </text>
	<text transform="matrix(1 0 0 1 3.623962e-04 25.0439)"><tspan x="0" y="0" class="st1 st4 st3">to</tspan><tspan x="10.6" y="0" class="st1 st4 st3"> </tspan><tspan x="13.4" y="0" class="st1 st4 st3">r</tspan><tspan x="17.2" y="0" class="st1 st4 st3">emain</tspan><tspan x="48.5" y="0" class="st1 st4 st3"> </tspan><tspan x="51.3" y="0" class="st1 st4 st3">i</tspan><tspan x="54.1" y="0" class="st1 st4 st3">n</tspan><tspan x="60.6" y="0" class="st1 st4 st3">v</tspan><tspan x="66.3" y="0" class="st1 st4 st3">ested</tspan></text>
	<text transform="matrix(1 0 0 1 193.0004 13.644)" class="st5 st6 st7">Option A</text>
	<text transform="matrix(1 0 0 1 193.0004 23.644)"><tspan x="0" y="0" class="st5 st4 st7">Not usi</tspan><tspan x="23.4" y="0" class="st5 st4 st7">n</tspan><tspan x="27.8" y="0" class="st5 st4 st7">g a </tspan></text>
	<text transform="matrix(1 0 0 1 232.224 23.644)" class="st5 st4 st7"> </text>
	<text transform="matrix(1 0 0 1 193.0004 33.644)"><tspan x="0" y="0" class="st5 st4 st7">line of c</tspan><tspan x="25.9" y="0" class="st5 st4 st7">r</tspan><tspan x="28.5" y="0" class="st5 st4 st7">edit</tspan></text>
	<text transform="matrix(1 0 0 1 263.0507 13.644)" class="st5 st6 st7">Option B</text>
	<text transform="matrix(1 0 0 1 263.0507 23.644)"><tspan x="0" y="0" class="st5 st4 st7">Usi</tspan><tspan x="10.2" y="0" class="st5 st4 st7">n</tspan><tspan x="14.6" y="0" class="st5 st4 st7">g a </tspan></text>
	<text transform="matrix(1 0 0 1 289.2577 23.644)" class="st5 st4 st7"> </text>
	<text transform="matrix(1 0 0 1 263.0507 33.644)"><tspan x="0" y="0" class="st5 st4 st7">line of c</tspan><tspan x="25.9" y="0" class="st5 st4 st7">r</tspan><tspan x="28.5" y="0" class="st5 st4 st7">edit</tspan></text>
	<rect y="152.1" class="st1" width="323.1" height="18"/>
	<rect x="253.5" y="76.3" class="st8" width="69.5" height="20.5"/>
	<line class="st9" x1="0" y1="40.4" x2="323.1" y2="40.4"/>
	<line class="st9" x1="0" y1="58.4" x2="323.1" y2="58.4"/>
	<line class="st9" x1="0" y1="76.4" x2="323.1" y2="76.4"/>
	<line class="st10" x1="0" y1="95.9" x2="323.1" y2="95.9"/>
	<line class="st9" x1="0" y1="114.4" x2="323.1" y2="114.4"/>
	<line class="st10" x1="0" y1="133.9" x2="323.1" y2="133.9"/>
	<text transform="matrix(1 0 0 1 3.623962e-04 53.9438)" class="st5 st6 st11"> </text>
	<text transform="matrix(1 0 0 1 92.2772 53.9438)"><tspan x="0" y="0" class="st5 st6 st11">B</tspan><tspan x="4.8" y="0" class="st5 st6 st11">ALANCED PO</tspan><tspan x="54.5" y="0" class="st5 st6 st11">R</tspan><tspan x="59.2" y="0" class="st5 st6 st11">T</tspan><tspan x="63.7" y="0" class="st5 st6 st11">F</tspan><tspan x="68" y="0" class="st5 st6 st11">OLIO</tspan></text>
	<text transform="matrix(1 0 0 1 173.0004 53.9438)" class="st5 st6 st11"> </text>
	<text transform="matrix(1 0 0 1 199.8925 53.9438)"><tspan x="0" y="0" class="st5 st6 st11">$</tspan><tspan x="4.6" y="0" class="st5 st6 st11">7</tspan><tspan x="8.3" y="0" class="st5 st6 st11">,50</tspan><tspan x="19.3" y="0" class="st5 st6 st11">0</tspan><tspan x="23.7" y="0" class="st5 st6 st11">,</tspan><tspan x="25.3" y="0" class="st5 st6 st11">000</tspan></text>
	<text transform="matrix(1 0 0 1 240.0048 53.9438)" class="st5 st6 st11"> </text>
	<text transform="matrix(1 0 0 1 271.8925 53.9438)"><tspan x="0" y="0" class="st5 st6 st11">$</tspan><tspan x="4.6" y="0" class="st5 st6 st11">7</tspan><tspan x="8.3" y="0" class="st5 st6 st11">,50</tspan><tspan x="19.3" y="0" class="st5 st6 st11">0</tspan><tspan x="23.7" y="0" class="st5 st6 st11">,</tspan><tspan x="25.3" y="0" class="st5 st6 st11">000</tspan></text>
	<text transform="matrix(1 0 0 1 3.623962e-04 71.9438)" class="st5 st6 st11"> </text>
	<text transform="matrix(1 0 0 1 93.4833 71.9438)"><tspan x="0" y="0" class="st5 st6 st11">LIQUI</tspan><tspan x="20.6" y="0" class="st5 st6 st11">D</tspan><tspan x="26.4" y="0" class="st5 st6 st11">A</tspan><tspan x="31.5" y="0" class="st5 st6 st11">TION AMOUNT</tspan></text>
	<text transform="matrix(1 0 0 1 173.0004 71.9438)" class="st5 st6 st11"> </text>
	<text transform="matrix(1 0 0 1 199.6674 71.9438)"><tspan x="0" y="0" class="st5 st6 st11">$1,50</tspan><tspan x="20.3" y="0" class="st5 st6 st11">0</tspan><tspan x="24.7" y="0" class="st5 st6 st11">,</tspan><tspan x="26.3" y="0" class="st5 st6 st11">000</tspan></text>
	<text transform="matrix(1 0 0 1 240.0048 71.9438)" class="st5 st6 st11"> </text>
	<text transform="matrix(1 0 0 1 302.7714 71.9438)" class="st5 st6 st11">$0</text>
	<text transform="matrix(1 0 0 1 3.623962e-04 89.9438)" class="st5 st6 st11"> </text>
	<text transform="matrix(1 0 0 1 84.4022 89.9438)"><tspan x="0" y="0" class="st5 st6 st11">REMAINING INVE</tspan><tspan x="63.4" y="0" class="st5 st6 st11">S</tspan><tspan x="67.7" y="0" class="st5 st6 st11">TMENT</tspan></text>
	<text transform="matrix(1 0 0 1 173.0004 89.9438)" class="st5 st6 st11"> </text>
	<text transform="matrix(1 0 0 1 198.0116 89.9438)"><tspan x="0" y="0" class="st5 st6 st11">$</tspan><tspan x="4.6" y="0" class="st5 st6 st11">6</tspan><tspan x="9.1" y="0" class="st5 st6 st11">,</tspan><tspan x="10.7" y="0" class="st5 st6 st11">00</tspan><tspan x="19.9" y="0" class="st5 st6 st11">0</tspan><tspan x="24.3" y="0" class="st5 st6 st11">,</tspan><tspan x="25.8" y="0" class="st5 st6 st11">000</tspan></text>
	<text transform="matrix(1 0 0 1 240.0048 89.9438)" class="st5 st6 st11"> </text>
	<text transform="matrix(1 0 0 1 271.8925 89.9438)"><tspan x="0" y="0" class="st5 st6 st11">$</tspan><tspan x="4.6" y="0" class="st5 st6 st11">7</tspan><tspan x="8.3" y="0" class="st5 st6 st11">,50</tspan><tspan x="19.3" y="0" class="st5 st6 st11">0</tspan><tspan x="23.7" y="0" class="st5 st6 st11">,</tspan><tspan x="25.3" y="0" class="st5 st6 st11">000</tspan></text>
	<text transform="matrix(1 0 0 1 3.623962e-04 108.4438)" class="st1 st4 st11"> </text>
	<text transform="matrix(1 0 0 1 86.7245 108.4438)"><tspan x="0" y="0" class="st1 st4 st11">TO</tspan><tspan x="10.3" y="0" class="st1 st4 st11">T</tspan><tspan x="14.3" y="0" class="st1 st4 st11">AL </tspan><tspan x="25.9" y="0" class="st1 st4 st11">E</tspan><tspan x="30.3" y="0" class="st1 st4 st11">QUI</tspan><tspan x="44.5" y="0" class="st1 st4 st11">T</tspan><tspan x="49" y="0" class="st1 st4 st11">Y RETURN</tspan></text>
	<text transform="matrix(1 0 0 1 173.0004 108.4438)" class="st1 st4 st11"> </text>
	<text transform="matrix(1 0 0 1 204.3832 108.4438)"><tspan x="0" y="0" class="st1 st4 st11">$</tspan><tspan x="4.6" y="0" class="st1 st4 st11">3</tspan><tspan x="9.2" y="0" class="st1 st4 st11">7</tspan><tspan x="13.8" y="0" class="st1 st4 st11">5</tspan><tspan x="18.3" y="0" class="st1 st4 st11">,</tspan><tspan x="20" y="0" class="st1 st4 st11">000</tspan></text>
	<text transform="matrix(1 0 0 1 239.9965 108.4438)" class="st1 st4 st11"> </text>
	<text transform="matrix(1 0 0 1 276.4198 108.4438)"><tspan x="0" y="0" class="st1 st4 st11">$</tspan><tspan x="4.6" y="0" class="st1 st4 st11">4</tspan><tspan x="9.2" y="0" class="st1 st4 st11">6</tspan><tspan x="13.8" y="0" class="st1 st4 st11">8</tspan><tspan x="18.3" y="0" class="st1 st4 st11">,</tspan><tspan x="19.8" y="0" class="st1 st4 st11">750</tspan></text>
	<text transform="matrix(1 0 0 1 3.623962e-04 127.9438)" class="st5 st6 st11"> </text>
	<text transform="matrix(1 0 0 1 109.2782 127.9438)"><tspan x="0" y="0" class="st5 st6 st11">TO</tspan><tspan x="10.2" y="0" class="st5 st6 st11">T</tspan><tspan x="14.2" y="0" class="st5 st6 st11">AL </tspan><tspan x="25.8" y="0" class="st5 st6 st11">L</tspan><tspan x="29.8" y="0" class="st5 st6 st11">O</tspan><tspan x="35.9" y="0" class="st5 st6 st11">AN </tspan><tspan x="49.2" y="0" class="st5 st6 st11">C</tspan><tspan x="54.3" y="0" class="st5 st6 st11">O</tspan><tspan x="60.5" y="0" class="st5 st6 st11">S</tspan><tspan x="64.8" y="0" class="st5 st6 st11">T</tspan></text>
	<text transform="matrix(1 0 0 1 173.0004 127.9438)" class="st5 st6 st11"> </text>
	<text transform="matrix(1 0 0 1 230.7626 127.9438)" class="st5 st6 st11">$0</text>
	<text transform="matrix(1 0 0 1 239.9965 127.9438)" class="st5 st6 st11"> </text>
	<text transform="matrix(1 0 0 1 278.4979 127.9438)"><tspan x="0" y="0" class="st5 st6 st11">($</tspan><tspan x="7.2" y="0" class="st5 st6 st11">2</tspan><tspan x="11.7" y="0" class="st5 st6 st11">6</tspan><tspan x="16.2" y="0" class="st5 st6 st11">,250)</tspan></text>
	<text transform="matrix(1 0 0 1 3.623962e-04 145.9438)" class="st1 st4 st11"> </text>
	<text transform="matrix(1 0 0 1 95.3285 145.9438)"><tspan x="0" y="0" class="st1 st4 st11">NET </tspan><tspan x="16.7" y="0" class="st1 st4 st11">E</tspan><tspan x="21.1" y="0" class="st1 st4 st11">QUI</tspan><tspan x="35.3" y="0" class="st1 st4 st11">T</tspan><tspan x="39.8" y="0" class="st1 st4 st11">Y RETURN</tspan></text>
	<text transform="matrix(1 0 0 1 173.0004 145.9438)" class="st1 st4 st11"> </text>
	<text transform="matrix(1 0 0 1 204.3832 145.9438)"><tspan x="0" y="0" class="st1 st4 st11">$</tspan><tspan x="4.6" y="0" class="st1 st4 st11">3</tspan><tspan x="9.2" y="0" class="st1 st4 st11">7</tspan><tspan x="13.8" y="0" class="st1 st4 st11">5</tspan><tspan x="18.3" y="0" class="st1 st4 st11">,</tspan><tspan x="20" y="0" class="st1 st4 st11">000</tspan></text>
	<text transform="matrix(1 0 0 1 239.9965 145.9438)" class="st1 st4 st11"> </text>
	<text transform="matrix(1 0 0 1 275.4208 145.9438)"><tspan x="0" y="0" class="st1 st4 st11">$4</tspan><tspan x="9.2" y="0" class="st1 st4 st11">4</tspan><tspan x="13.8" y="0" class="st1 st4 st11">2</tspan><tspan x="18.4" y="0" class="st1 st4 st11">,500</tspan></text>
	<text transform="matrix(1 0 0 1 3.623962e-04 163.9438)" class="st12 st4 st13"> </text>
	<text transform="matrix(1 0 0 1 9.0702 163.9438)" class="st12 st4 st13">   </text>
	<text transform="matrix(1 0 0 1 15.7914 163.9438)"><tspan x="0" y="0" class="st12 st4 st11">V</tspan><tspan x="4.5" y="0" class="st12 st4 st11">A</tspan><tspan x="10" y="0" class="st12 st4 st11">L</tspan><tspan x="14.1" y="0" class="st12 st4 st11">UE ADDED </tspan><tspan x="56" y="0" class="st12 st4 st11">B</tspan><tspan x="60.8" y="0" class="st12 st4 st11">Y USING A LINE OF CREDIT</tspan></text>
	<text transform="matrix(1 0 0 1 174.0004 163.9438)"><tspan x="0" y="0" class="st12 st4 st13 st14"> </tspan><tspan x="59.9" y="0" class="st12 st4 st13"> </tspan></text>
	<text transform="matrix(1 0 0 1 275.2167 163.9438)"><tspan x="0" y="0" class="st12 st4 st15">$</tspan><tspan x="5.6" y="0" class="st12 st4 st15">6</tspan><tspan x="11" y="0" class="st12 st4 st15 st16">7</tspan><tspan x="15.5" y="0" class="st12 st4 st15">,500</tspan></text>
	<text transform="matrix(1 0 0 1 338.5009 89.7988)" class="st1 st2 st7">Rather than </text>
	<text transform="matrix(1 0 0 1 379.1083 89.7988)" class="st1 st2 st7"> </text>
	<text transform="matrix(1 0 0 1 338.5009 100.7988)"><tspan x="0" y="0" class="st1 st2 st7">liquidati</tspan><tspan x="27.4" y="0" class="st1 st2 st7">n</tspan><tspan x="31.8" y="0" class="st1 st2 st7">g </tspan></text>
	<text transform="matrix(1 0 0 1 375.2928 100.7988)" class="st1 st2 st7"> </text>
	<text transform="matrix(1 0 0 1 338.5009 111.7988)"><tspan x="0" y="0" class="st1 st2 st7">i</tspan><tspan x="1.9" y="0" class="st1 st2 st7">nv</tspan><tspan x="10" y="0" class="st1 st2 st7">estme</tspan><tspan x="30.5" y="0" class="st1 st2 st7">n</tspan><tspan x="34.9" y="0" class="st1 st2 st7">ts, </tspan></text>
	<text transform="matrix(1 0 0 1 381.9012 111.7988)" class="st1 st2 st7"> </text>
	<text transform="matrix(1 0 0 1 338.5009 122.7988)"><tspan x="0" y="0" class="st1 st2 st7">a line of c</tspan><tspan x="31.5" y="0" class="st1 st2 st7">r</tspan><tspan x="34" y="0" class="st1 st2 st7">edit </tspan></text>
	<text transform="matrix(1 0 0 1 387.1884 122.7988)" class="st1 st2 st7"> </text>
	<text transform="matrix(1 0 0 1 338.5009 133.7988)"><tspan x="0" y="0" class="st1 st2 st7">w</tspan><tspan x="5.9" y="0" class="st1 st2 st7">as used </tspan><tspan x="32.4" y="0" class="st1 st2 st7">f</tspan><tspan x="34.7" y="0" class="st1 st2 st7">or </tspan></text>
	<text transform="matrix(1 0 0 1 381.3563 133.7988)" class="st1 st2 st7"> </text>
	<text transform="matrix(1 0 0 1 338.5009 144.7988)"><tspan x="0" y="0" class="st1 st2 st7">liquidi</tspan><tspan x="20.9" y="0" class="st1 st2 st7">t</tspan><tspan x="23.6" y="0" class="st1 st2 st7">y purposes</tspan></text>
	<polyline class="st8" points="335.8,75.2 324.2,86.8 335.8,98.4 	"/>
	<line class="st17" x1="253.6" y1="0.4" x2="253.6" y2="152.1"/>
</g>
</svg>
